<?xml version="1.0" standalone="no"?>
<!DOCTYPE svg PUBLIC "-//W3C//DTD SVG 1.1//EN" "http://www.w3.org/Graphics/SVG/1.1/DTD/svg11.dtd" >
<!--
2013-9-30: Created.
-->
<svg>
<metadata>
Created by iconfont
</metadata>
<defs>

<font id="iconfont" horiz-adv-x="1024" >
  <font-face
    font-family="iconfont"
    font-weight="500"
    font-stretch="normal"
    units-per-em="1024"
    ascent="896"
    descent="-128"
  />
    <missing-glyph />
    
    <glyph glyph-name="plus-circle-o" unicode="&#60713;" d="M696 416H544v152a8.032 8.032 0 0 1-8 8h-48a8.032 8.032 0 0 1-8-8V416h-152a8.032 8.032 0 0 1-8-8v-48c0-4.384 3.616-8 8-8H480v-152c0-4.384 3.616-8 8-8h48c4.384 0 8 3.616 8 8V352h152c4.384 0 8 3.616 8 8v48a8.032 8.032 0 0 1-8 8zM512 832C264.608 832 64 631.392 64 384s200.608-448 448-448 448 200.608 448 448S759.392 832 512 832z m0-820C306.592 12 140 178.592 140 384S306.592 756 512 756 884 589.408 884 384 717.408 12 512 12z"  horiz-adv-x="1024" />

    
    <glyph glyph-name="paixu1" unicode="&#60714;" d="M221.472 263.84a34.4 34.4 0 0 0 49.216-5.824l0.064-0.096 90.976-118.432V729.44a36.192 36.192 0 0 0 16.64 33.216l0.16 0.096a34.336 34.336 0 0 0 36.768-0.096l-0.128 0.096c11.264-7.008 17.76-19.904 16.768-33.28v-693.472c0-15.36-9.44-29.024-23.616-34.016a34.56 34.56 0 0 0-38.912 11.776l-0.064 0.096-153.824 199.68a36.256 36.256 0 0 0 5.92 50.304l0.064 0.064zM615.712 766.08a34.72 34.72 0 0 0 39.072-11.808l0.064-0.096 153.728-199.744a36.8 36.8 0 0 0-6.368-50.912 34.88 34.88 0 0 0-49.728 6.464l-0.064 0.096-90.112 118.432v-589.952a36.224 36.224 0 0 0-16.576-33.216l-0.16-0.096a34.368 34.368 0 0 0-36.832 0.064l0.128-0.096a36.256 36.256 0 0 0-16.8 33.376v-0.128V731.936c0 15.488 9.696 28.704 23.36 33.92l0.256 0.096z"  horiz-adv-x="1024" />

    
    <glyph glyph-name="preview" unicode="&#60715;" d="M512 629.984c-80 0-147.84-20.288-205.792-60.8-57.504-40.192-106.976-101.504-148-185.248 82.016-167.392 197.056-245.952 353.792-245.952 80 0 147.84 20.288 205.792 60.8 57.504 40.192 106.976 101.504 148 185.248C783.776 551.424 668.736 629.984 512 629.984z m430.208-220.192a60.16 60.16 0 0 0 0-51.488c-94.784-199.808-238.016-300.288-430.208-300.288-192.096 0-335.392 100.512-430.208 300.192a60.16 60.16 0 0 0 0 51.488C176.608 609.504 319.808 709.984 512 709.984c192.096 0 335.392-100.512 430.208-300.192z m-434.208 74.208a100 100 0 1 1 0-200 100 100 0 0 1 0 200z m0 76a176 176 0 1 0 0-352 176 176 0 0 0 0 352z"  horiz-adv-x="1024" />

    
    <glyph glyph-name="riqi1" unicode="&#60716;" d="M201.152-73.152a164.608 164.608 0 0 0-164.576 164.576v512A164.608 164.608 0 0 0 201.152 768h73.152V804.576a54.848 54.848 0 0 0 109.696 0V768h256V804.576a54.848 54.848 0 1 0 109.696 0V768h73.152a164.608 164.608 0 0 0 164.576-164.576v-512a164.608 164.608 0 0 0-164.576-164.576H201.12z m676.576 493.728H146.304v-329.152c0-29.248 22.816-53.088 51.648-54.784l3.232-0.064h621.76c29.152 0 53.024 22.752 54.752 51.488v0.16l0.064 3.232V420.608zM274.272 658.272H201.12h-0.032c-29.152 0-53.024-22.752-54.752-51.488v-0.16l-0.064-3.232v-73.152h731.424V603.392v0.032c0 29.152-22.752 53.024-51.488 54.752h-0.16l-3.232 0.064h-73.152a54.848 54.848 0 1 0-109.696 0h-256a54.848 54.848 0 0 0-109.696 0z"  horiz-adv-x="1024" />

    
    <glyph glyph-name="plus" unicode="&#60717;" d="M464 432v352a48 48 0 0 0 96 0v-352h352a48 48 0 0 0 0-96h-352v-352a48 48 0 0 0-96 0v352h-352a48 48 0 0 0 0 96h352z"  horiz-adv-x="1024" />

    
    <glyph glyph-name="qianru" unicode="&#60718;" d="M928 563.968a32 32 0 0 0 32-32v-449.92a32 32 0 0 0-32-32H96a32 32 0 0 0-32 32v449.92a32 32 0 0 0 32 32h832z m-48-72h-736a8 8 0 0 1-8-8v-353.92c0-4.48 3.584-8.064 8-8.064h736a8 8 0 0 1 8 8V483.968a8 8 0 0 1-8 8zM952 736a8 8 0 0 0 8-8V672a8 8 0 0 0-8-8H72A8 8 0 0 0 64 672V728A8 8 0 0 0 72 736h880z"  horiz-adv-x="1024" />

    
    <glyph glyph-name="rotate-left" unicode="&#60719;" d="M900.544 264.992a399.68 399.68 0 0 1-81.248 302.464 400.576 400.576 0 0 1-314.592 154.144l-0.192 63.968a7.808 7.808 0 0 1-12.608 6.112l-127.936-100.96a7.808 7.808 0 0 1 0.032-12.288l128.128-101.152c5.12-4 12.672-0.448 12.64 6.08l-0.032 63.936a326.496 326.496 0 0 0 157.856-41.248 326.368 326.368 0 0 0 98.432-84.32 325.344 325.344 0 0 0 67.04-240.64 321.6 321.6 0 0 0-2.656-18.112l0.288 1.984h74.88zM188 76V402.016h440v-326.016H188zM144 0H672a32 32 0 0 1 32 32V446.016a32 32 0 0 1-32 32H144a32 32 0 0 1-32-32V32a32 32 0 0 1 32-32z"  horiz-adv-x="1024" />

    
    <glyph glyph-name="Row-height" unicode="&#60720;" d="M416 768a32 32 0 0 0 32-32v-704a32 32 0 0 0-32-32H160a32 32 0 0 0-32 32V736a32 32 0 0 0 32 32h256z m344-608a8 8 0 0 0 8-8v-80h120A8 8 0 0 0 896 64v-56a8 8 0 0 0-8-8h-304a8 8 0 0 0-8 8V64a8 8 0 0 0 8 8H704v80a8 8 0 0 0 8 8h48z m-384 536h-176v-624h176V696z m384-408a8 8 0 0 0 8-8v-48a8 8 0 0 0-8-8h-48a8 8 0 0 0-8 8v48a8 8 0 0 0 8 8h48z m0 128a8 8 0 0 0 8-8v-48a8 8 0 0 0-8-8h-48a8 8 0 0 0-8 8v48a8 8 0 0 0 8 8h48z m0 128a8 8 0 0 0 8-8v-48a8 8 0 0 0-8-8h-48a8 8 0 0 0-8 8v48a8 8 0 0 0 8 8h48z m128 224a8 8 0 0 0 8-8V704a8 8 0 0 0-8-8H768v-80a8 8 0 0 0-8-8h-48a8 8 0 0 0-8 8v80h-120A8 8 0 0 0 576 704V760a8 8 0 0 0 8 8h304z"  horiz-adv-x="1024" />

    
    <glyph glyph-name="rotate-right" unicode="&#60721;" d="M123.456 264.992a399.68 399.68 0 0 0 81.248 302.464 400.576 400.576 0 0 0 314.592 154.144l0.192 63.968c0 6.528 7.552 10.112 12.608 6.112l127.936-100.96a7.808 7.808 0 0 0-0.032-12.288L531.872 577.28a7.808 7.808 0 0 0-12.64 6.08l0.032 63.936a326.496 326.496 0 0 1-157.856-41.248 326.368 326.368 0 0 1-98.432-84.32 325.344 325.344 0 0 1-67.04-240.64c0.864-7.168 1.696-12.672 2.656-18.112l-0.288 1.984h-74.88z m712.544-188.992V402.016h-440v-326.016h440zM880 0H352a32 32 0 0 0-32 32V446.016a32 32 0 0 0 32 32h528a32 32 0 0 0 32-32V32a32 32 0 0 0-32-32z"  horiz-adv-x="1024" />

    
    <glyph glyph-name="orderedlist" unicode="&#60722;" d="M359.68 132h560.64c4.224 0 7.68-4.8 7.68-10.656v-74.656c0-5.856-3.456-10.656-7.68-10.656H359.68c-4.224 0-7.68 4.8-7.68 10.656v74.656c0 5.856 3.456 10.656 7.68 10.656z m0 600h560.64c4.224 0 7.68-4.8 7.68-10.656v-74.656c0-5.856-3.456-10.656-7.68-10.656H359.68c-4.224 0-7.68 4.8-7.68 10.656V721.344c0 5.856 3.456 10.656 7.68 10.656z m0-300h560.64c4.224 0 7.68-4.8 7.68-10.656v-74.656c0-5.856-3.456-10.656-7.68-10.656H359.68c-4.224 0-7.68 4.8-7.68 10.656v74.656c0 5.856 3.456 10.656 7.68 10.656z m-187.296-264H99.968a4 4 0 0 1-3.968-4v-34.016c0-2.208 1.792-4 3.968-4h72.416v-20.512H136.672a4 4 0 0 1-3.968-4v-34.016c0-2.208 1.792-4 3.968-4h35.712v-21.504H99.968a4 4 0 0 1-3.968-4v-34.016c0-2.208 1.792-4 3.968-4h116.064a4 4 0 0 1 3.968 4v160a4 4 0 0 1-3.968 4H172.384z m-30.368 432h40a4 4 0 0 1 4 4V760a8 8 0 0 1-8 8H100A4 4 0 0 1 96 764V728c0-2.208 1.792-4 4-4h38.016v-120c0-2.208 1.792-4 4-4z m74.016-256H147.584l70.336 77.696a8.384 8.384 0 0 1 2.08 5.408V464a4 4 0 0 1-3.968 4H99.968A4 4 0 0 1 96 464v-36c0-2.208 1.792-4 3.968-4h68.448l-70.336-77.696a8.384 8.384 0 0 1-2.08-5.408V304c0-2.208 1.792-4 3.968-4h116.064a4 4 0 0 1 3.968 4v36a4 4 0 0 1-3.968 4z"  horiz-adv-x="1024" />

    
    <glyph glyph-name="question-circle-o" unicode="&#60723;" d="M512 832C264.608 832 64 631.392 64 384s200.608-448 448-448 448 200.608 448 448S759.392 832 512 832z m0-820C306.592 12 140 178.592 140 384S306.592 756 512 756 884 589.408 884 384 717.408 12 512 12z m111.616 567.296C593.6 605.6 554.016 620 512 620s-81.6-14.496-111.616-40.704c-31.2-27.296-48.384-64-48.384-103.296v-7.616c0-4.384 3.616-8 8-8h48c4.384 0 8 3.616 8 8v7.616c0 44.096 43.104 80 96 80s96-35.904 96-80c0-31.104-22.016-59.616-56.096-72.704a111.68 111.68 0 0 1-52.096-40.896 114.56 114.56 0 0 1-19.904-64.896v-21.504c0-4.384 3.616-8 8-8h48c4.384 0 8 3.616 8 8v22.688c0 19.712 12.384 37.696 30.912 44.8 59.008 22.688 97.088 74.688 97.088 132.512 0.096 39.296-17.088 76-48.288 103.296zM472 164a40 40 0 0 1 80 0 40 40 0 0 1-80 0z"  horiz-adv-x="1024" />

    
    <glyph glyph-name="save" unicode="&#60724;" d="M264 708H188v-648H264V296A24 24 0 0 0 288 320h448a24 24 0 0 0 24-24v-236h76V552.512l-155.488 155.488h-0.512V480a32 32 0 0 0-32-32h-352a32 32 0 0 0-32 32V708z m68-648h360v192h-360v-192zM685.504 784c17.664 0 33.664-7.168 45.248-18.752l162.496-162.496c11.584-11.584 18.752-27.584 18.752-45.248V16a32 32 0 0 0-32-32h-736a32 32 0 0 0-32 32v736a32 32 0 0 0 32 32h541.504zM448 692v-160h148v160H448z"  horiz-adv-x="1024" />

    
    <glyph glyph-name="rightarrow" unicode="&#60725;" d="M764.416 379.328c2.208-1.728 3.584-4.384 3.584-7.36s-1.408-5.632-3.552-7.36h-0.032l-165.504-130.56a9.344 9.344 0 0 0-15.04 7.264v86.4H201.344A9.344 9.344 0 0 0 192 337.056v69.952c0 5.12 4.224 9.344 9.344 9.344h382.4v86.272c0 7.808 8.96 12.16 15.04 7.36l165.632-130.688z"  horiz-adv-x="1024" />

    
    <glyph glyph-name="quote" unicode="&#60726;" d="M412 690.88a312.64 312.64 0 0 1-10.56-0.544c-147.104-11.552-261.44-134.656-261.44-283.104v-279.04c0-28.736 23.296-52 52-52h168c28.704 0 52 23.264 52 52v168c0 28.704-23.296 52-52 52H244v59.04a180.064 180.064 0 0 0 154.528 178.208c3.52 0.512 7.968 0.896 13.472 1.248V690.912z m472 0a312.64 312.64 0 0 1-10.56-0.544c-147.104-11.552-261.44-134.656-261.44-283.104v-279.04c0-28.736 23.296-52 52-52H832c28.704 0 52 23.264 52 52v168c0 28.704-23.296 52-52 52h-116v59.04a180.064 180.064 0 0 0 154.528 178.208c3.52 0.512 7.968 0.896 13.472 1.248V690.912z"  horiz-adv-x="1024" />

    
    <glyph glyph-name="right-circle-fill" unicode="&#60727;" d="M512 832C264.608 832 64 631.392 64 384s200.608-448 448-448 448 200.608 448 448S759.392 832 512 832z m154.688-454.496l-246.016-178.016a8 8 0 0 0-12.704 6.496v46.912a32 32 0 0 0 13.184 25.888L566.56 384l-145.408 105.184a31.936 31.936 0 0 0-13.184 25.888v46.912c0 6.496 7.392 10.304 12.704 6.496l246.016-178.016c4.384-3.2 4.384-9.792 0-12.992z"  horiz-adv-x="1024" />

    
    <glyph glyph-name="qianyi" unicode="&#60728;" d="M320-64a64 64 0 0 0-64 64v192h64v-192h384V384h-192v64h192a64 64 0 0 0 64-64v-384a64 64 0 0 0-64-64H320zM906.368 606.08c-73.792 93.824-187.168 153.664-314.56 154.112h-0.064l-0.192 64a7.808 7.808 0 0 1-12.64 6.144h0.032l-128-100.992a7.84 7.84 0 0 1 0-12.352h0.032l128.128-101.12c5.12-3.968 12.672-0.32 12.608 6.144V685.952c12.864-0.128 25.856-0.96 38.784-2.56a326.848 326.848 0 0 0 274.976-236.416l0.544-2.304c11.008-40.768 13.952-82.752 8.896-124.8-0.704-5.44-1.408-10.88-2.432-16.128h74.88c2.56 16.928 4 36.448 4 56.32 0 93.216-32 178.944-85.6 246.816l0.64-0.832zM135.104 256h49.792C188.8 256 192 259.2 192 263.104V312.96a7.104 7.104 0 0 1-7.104 7.04H135.04a7.104 7.104 0 0 1-7.04-7.104v-49.792c0-3.904 3.2-7.104 7.104-7.104z m-128 0H56.96c3.84 0 7.04 3.2 7.04 7.104V312.96a7.104 7.104 0 0 1-7.104 7.04H7.04a7.104 7.104 0 0 1-7.04-7.104v-49.792C0 259.2 3.2 256 7.104 256z m0 128H56.96c3.84 0 7.04 3.2 7.04 7.104V440.96a7.104 7.104 0 0 1-7.104 7.04H7.04a7.104 7.104 0 0 1-7.04-7.104v-49.792C0 387.2 3.2 384 7.104 384z m0 128H56.96c3.84 0 7.04 3.2 7.04 7.104V568.96a7.104 7.104 0 0 1-7.104 7.04H7.04a7.104 7.104 0 0 1-7.04-7.104v-49.792C0 515.2 3.2 512 7.104 512z m0 128H56.96C60.8 640 64 643.2 64 647.104V696.96A7.104 7.104 0 0 1 56.896 704H7.04a7.104 7.104 0 0 1-7.04-7.104v-49.792C0 643.2 3.2 640 7.104 640z m128 0h49.792C188.8 640 192 643.2 192 647.104V696.96A7.104 7.104 0 0 1 184.896 704H135.04a7.104 7.104 0 0 1-7.04-7.104v-49.792C128 643.2 131.2 640 135.104 640z m128 0h49.792C316.8 640 320 643.2 320 647.104V696.96A7.104 7.104 0 0 1 312.896 704H263.04a7.104 7.104 0 0 1-7.04-7.104v-49.792C256 643.2 259.2 640 263.104 640z m128-128h49.792c3.904 0 7.104 3.2 7.104 7.104V568.96a7.104 7.104 0 0 1-7.104 7.04H391.04a7.104 7.104 0 0 1-7.04-7.104v-49.792c0-3.904 3.2-7.104 7.104-7.104z m0-128h49.792c3.904 0 7.104 3.2 7.104 7.104V440.96a7.104 7.104 0 0 1-7.104 7.04H391.04a7.104 7.104 0 0 1-7.04-7.104v-49.792c0-3.904 3.2-7.104 7.104-7.104z m0-128h49.792c3.904 0 7.104 3.2 7.104 7.104V312.96a7.104 7.104 0 0 1-7.104 7.04H391.04a7.104 7.104 0 0 1-7.04-7.104v-49.792c0-3.904 3.2-7.104 7.104-7.104z m-128 0h49.792c3.904 0 7.104 3.2 7.104 7.104V312.96a7.104 7.104 0 0 1-7.104 7.04H263.04a7.104 7.104 0 0 1-7.04-7.104v-49.792c0-3.904 3.2-7.104 7.104-7.104z"  horiz-adv-x="1024" />

    
    <glyph glyph-name="shape" unicode="&#60729;" d="M650.24 774.4a15.36 15.36 0 0 0 15.36-15.36v-201.664c147.04-17.888 259.84-141.952 259.84-292.352a294.432 294.432 0 1 0-586.624-36.032l-0.128 1.408H136.96a15.36 15.36 0 0 0-15.36 15.36V759.04a15.36 15.36 0 0 0 15.36 15.36h513.28z m15.424-286.784L665.6 245.76a15.36 15.36 0 0 0-15.36-15.36h-241.856c17.376-108.64 110.4-190.656 222.592-190.656a225.28 225.28 0 0 1 35.968 447.712l-1.28 0.16zM596.48 705.28H190.72v-405.76h147.904c16.48 135.296 122.624 241.408 256.512 257.728l1.408 0.128-0.064 147.904z m-188.096-405.696l188.096-0.064v188.096c-97.024-15.488-172.64-91.072-188-186.816l-0.16-1.28z"  horiz-adv-x="1024" />

    
    <glyph glyph-name="reload" unicode="&#60730;" d="M909.088 686.688l-56.384-44.096A419.008 419.008 0 0 1 521.92 804c-231.904 0-419.616-187.488-419.904-419.488-0.288-232.192 187.808-420.512 419.904-420.512 181.312 0 335.808 115.008 394.592 276.096a8.032 8.032 0 0 1-4.896 10.304l-56.704 19.488a8 8 0 0 1-10.112-4.8 342.912 342.912 0 0 0-79.584-124.32 341.952 341.952 0 0 0-243.104-100.8 342.272 342.272 0 0 0-243.104 100.8 342.016 342.016 0 0 0-73.696 109.408c-17.888 42.4-27.008 87.392-27.008 133.888s9.088 91.488 27.008 133.888c17.312 40.992 42.112 77.792 73.696 109.408s68.384 56.416 109.312 73.792a341.952 341.952 0 0 0 133.792 27.008 342.272 342.272 0 0 0 243.104-100.8c9.888-9.888 19.2-20.384 27.808-31.392l-60.192-47.008a8 8 0 0 1 3.008-14.112l175.616-43.008a8 8 0 0 1 9.888 7.712l0.8 180.896a8.064 8.064 0 0 1-12.992 6.208z"  horiz-adv-x="1024" />

    
    <glyph glyph-name="redo" unicode="&#60731;" d="M744 575.008v-103.136c0-9.056 10.528-14.176 17.536-8.512l191.328 151.136a10.784 10.784 0 0 1 0 16.992l-191.328 151.136a10.816 10.816 0 0 1-17.536-8.512v-103.136H411.008c-189.984 0-344-154.016-344-344s154.016-344 344-344h154.272a8 8 0 0 1 8 8v80a8 8 0 0 1-8 8h-154.272a248 248 0 0 0 0 496H744z"  horiz-adv-x="1024" />

    
    <glyph glyph-name="sheet" unicode="&#60732;" d="M888 768H136A71.936 71.936 0 0 1 64 696v-624A71.936 71.936 0 0 1 136 0h752A71.936 71.936 0 0 1 960 72V696A71.936 71.936 0 0 1 888 768z m0-233.984h-206.016V696h206.016v-161.984z m-481.984-236.032v172.032h211.968v-172.032h-211.968z m211.968-64v-161.984h-211.968v161.984h211.968z m-275.968 64H136v172.032h206.016v-172.032z m64 236.032V696h211.968v-161.984h-211.968z m275.968-64h206.016v-172.032h-206.016v172.032zM342.016 696v-161.984H136V696h206.016zM136 233.984h206.016v-161.984H136v161.984z m545.984-161.984v161.984h206.016v-161.984h-206.016z"  horiz-adv-x="1024" />

    
    <glyph glyph-name="save-to-resource" unicode="&#60733;" d="M398.208 712c1.984 0 3.968-0.832 5.504-2.176l117.248-112.192h358.976a32 32 0 0 0 32-32V24a32 32 0 0 0-32-32H144a32 32 0 0 0-32 32V680a32 32 0 0 0 32 32zM372.48 640H184v-576h656V525.632H492.096L372.48 640z m261.12-451.328c3.52 0 6.4-2.88 6.4-6.4v-44.544a6.4 6.4 0 0 0-6.4-6.4h-243.2a6.4 6.4 0 0 0-6.4 6.4v44.544c0 3.52 2.88 6.4 6.4 6.4h243.2zM535.936 480c3.52 0 6.4-2.304 6.4-5.12v-150.784H601.6c5.376 0 8.32-4.864 5.056-8.192l-89.6-89.92a7.424 7.424 0 0 0-10.112 0.032l-89.6 89.984c-3.2 3.328-0.32 8.192 5.12 8.192h59.072v150.784c0 2.752 2.88 5.056 6.4 5.056z"  horiz-adv-x="1024" />

    
    <glyph glyph-name="shaixuan" unicode="&#60734;" d="M668 144l1.44 0.032a36 36 0 1 0 0-72l-1.504 0.032h0.064-311.968l-1.44-0.032a36 36 0 1 0 1.504 71.968h-0.064 311.968z m112 271.968L781.44 416a36 36 0 1 0 0-72l-1.504 0.032h0.064-536a36 36 0 0 0-0.096 71.936h536.064z m80 272.032a36 36 0 1 0 0-72H164.032a36 36 0 0 0 0 72h695.968z"  horiz-adv-x="1024" />

    
    <glyph glyph-name="sheet-arrow" unicode="&#60735;" d="M306.432 476.608l195.328-244.544a20.16 20.16 0 0 1 30.688-0.032l0.032 0.032 196.224 244.48c11.776 13.76 2.432 35.456-15.36 35.456H321.856c-17.792 0-27.264-21.76-15.36-35.392z"  horiz-adv-x="1024" />

    
    <glyph glyph-name="searchreplace" unicode="&#60736;" d="M688 580.512V631.52c0 4.672-3.616 8.512-8 8.512h-384c-4.384 0-8-3.84-8-8.512v-51.008c0-4.672 3.616-8.512 8-8.512h384c4.384 0 8 3.84 8 8.512zM296 484c-4.384 0-8-3.84-8-8.512v-51.008c0-4.672 3.616-8.512 8-8.512H480c4.384 0 8 3.84 8 8.512v51.008c0 4.672-3.616 8.512-8 8.512H296z m144-436H212V744h552v-340c0-4.384 3.616-8 8-8H832c4.384 0 8 3.616 8 8v384a32 32 0 0 1-32 32h-640a32 32 0 0 1-32-32v-784a32 32 0 0 1 32-32h272c4.384 0 8 3.616 8 8V40a8.032 8.032 0 0 1-8 8z m354.464 40.64l94.496-94.496a8 8 0 0 0 0-11.328l-36.768-36.768a8 8 0 0 0-11.328 0l-96.256 96.256A176 176 0 1 0 652 368a176 176 0 0 0 142.464-279.36z m-142.464-0.64a104 104 0 1 1 0 208 104 104 0 0 1 0-208z"  horiz-adv-x="1024" />

    
    <glyph glyph-name="singleselect" unicode="&#60737;" d="M960 384c0 247.392-200.608 448-448 448S64 631.392 64 384s200.608-448 448-448 448 200.608 448 448zM140 384C140 589.408 306.592 756 512 756S884 589.408 884 384 717.408 12 512 12 140 178.592 140 384z m384.896-207.392l215.008 296.096a15.904 15.904 0 0 1-12.896 25.312H296.992a15.936 15.936 0 0 1-12.896-25.312l215.008-296.096c6.4-8.8 19.392-8.8 25.792 0z"  horiz-adv-x="1024" />

    
    <glyph glyph-name="shuipingjuzhongduiqi" unicode="&#60738;" d="M391.52 353.888H90.336v60.224h301.184v-60.224z m542.112 0h-301.184v60.224h301.184v-60.224z m-240.928-271.072c0-33.28-26.976-60.224-60.224-60.224h-240.928a60.224 60.224 0 0 0-60.224 60.224V685.184c0 33.28 26.976 60.224 60.224 60.224h240.928c33.28 0 60.224-26.976 60.224-60.224v-602.368z m-60.224 0V685.184h-240.928v-602.368h240.928z"  horiz-adv-x="1024" />

    
    <glyph glyph-name="select" unicode="&#60739;" d="M847.296 342.752a7.904 7.904 0 0 0 12.768-5.984v-76.672a15.68 15.68 0 0 0-5.728-12.224l-0.288-0.224-322.528-252.416a31.648 31.648 0 0 0-38.688-0.288l-0.352 0.288-322.432 252.416a15.936 15.936 0 0 0-6.016 12.064v76.8c0 6.56 7.424 10.208 12.576 6.368l0.192-0.128 335.296-262.4 335.296 262.4z m4.832 211.328c4.384 0 7.904-3.552 7.904-7.904v-55.36a7.904 7.904 0 0 0-7.904-7.904H171.84a7.904 7.904 0 0 0-7.904 7.904v55.36c0 4.384 3.552 7.904 7.904 7.904h680.288z m0 225.44c4.384 0 7.904-3.552 7.904-7.904v-55.36a7.904 7.904 0 0 0-7.904-7.904H171.84a7.904 7.904 0 0 0-7.904 7.904v55.36c0 4.384 3.552 7.904 7.904 7.904h680.288z"  horiz-adv-x="1024" />

    
    <glyph glyph-name="search" unicode="&#60740;" d="M909.632 41.472l-259.712 259.712a297.28 297.28 0 0 1 62.08 182.848v0.704a297.28 297.28 0 0 1-87.872 211.392A296.928 296.928 0 0 1 412.896 784h-0.992 0.064-0.704a297.28 297.28 0 0 1-211.392-87.872A296.704 296.704 0 0 1 112 484.992v-0.992 0.064c0-80.128 31.36-155.52 87.872-212.16a296.704 296.704 0 0 1 211.136-87.872h0.992-0.064 0.864a296.32 296.32 0 0 1 182.528 62.528l-0.672-0.512 259.712-259.584c3.2-3.2 8.384-3.2 11.584 0l43.584 43.52a8.128 8.128 0 0 1 0 11.52z m-339.2 284.16a222.176 222.176 0 0 0-157.888-65.6h-0.608 0.032-0.576a222.144 222.144 0 0 0-157.824 65.536 222.176 222.176 0 0 0-65.6 157.888v0.608-0.032a222.72 222.72 0 0 0 65.664 158.4 222.176 222.176 0 0 0 157.888 65.6h0.48-0.032c59.84 0 116.16-23.232 158.4-65.664a222.176 222.176 0 0 0 65.6-157.888v-0.48 0.032c0-59.84-23.296-116.16-65.536-158.4z"  horiz-adv-x="1024" />

    
    <glyph glyph-name="right" unicode="&#60741;" d="M765.696 409.184L314.88 761.28a7.968 7.968 0 0 1-12.896-6.304v-77.312c0-4.896 2.304-9.6 6.112-12.608l360-281.088-360-281.088a15.904 15.904 0 0 1-6.112-12.608v-77.312a8 8 0 0 1 12.896-6.304l450.784 352.096a32 32 0 0 1 0 50.4z"  horiz-adv-x="1024" />

    
    <glyph glyph-name="sisternode" unicode="&#60742;" d="M434.688 188H320A100 100 0 0 0 220 288V704h72v-416c0-15.456 12.544-28 28-28h114.688a240 240 0 1 0 0-72z m203.328 69.984H552a8 8 0 0 1-8-8v-52c0-4.416 3.584-8 8-8h86.016v-86.016c0-4.416 3.584-8 8-8h52a8 8 0 0 1 8 8v86.016h86.016a8 8 0 0 1 8 8v52a8 8 0 0 1-8 8h-86.016V344a8 8 0 0 1-8 8h-52a8 8 0 0 1-8-8v-86.016z m-55.04 394.016H112v72h470.976A96.064 96.064 0 0 0 768 688a96 96 0 0 0-185.024-36z"  horiz-adv-x="1024" />

    
    <glyph glyph-name="shuzi1" unicode="&#60743;" d="M747.392 754.944a48.096 48.096 0 0 0 33.824-59.168l0.064 0.352L749.088 576h122.88a48 48 0 0 0 0-96h-148.608l-47.168-176h147.776a48 48 0 0 0 0-96h-173.504l-43.072-160.96a48.032 48.032 0 1 0-92.736 25.184l-0.064-0.352 36.48 136.128h-172.608l-43.072-160.96a48.032 48.032 0 1 0-92.736 25.184l-0.064-0.352 36.48 136.128H151.968a48 48 0 0 0 0 96h152.832l47.168 176h-152a48 48 0 0 0 0 96h177.728l38.848 144.96a48.032 48.032 0 1 0 92.736-25.184l0.064 0.352L477.024 576h172.608l38.848 144.96a48.096 48.096 0 0 0 59.168 33.824l-0.352 0.064zM576.832 304L624 480h-172.608l-47.168-176h172.608z"  horiz-adv-x="1184" />

    
    <glyph glyph-name="solit-cells" unicode="&#60744;" d="M248 421.984H384V708H188V584a8 8 0 0 0-8-8H120a8 8 0 0 0-8 8V752a32 32 0 0 0 32 32h284a32 32 0 0 0 32-32v-736a32 32 0 0 0-32-32H144a32 32 0 0 0-32 32v168a8 8 0 0 0 8 8h60a8 8 0 0 0 8-8v-124H384v286.016H248v-81.408c0-7.136-8.288-11.2-13.824-6.72L83.264 377.28a8.544 8.544 0 0 0 0 13.44l150.912 119.392a8.512 8.512 0 0 0 13.824-6.72v-81.408z m528-76H640v-286.016h196v124a8 8 0 0 0 8 8h60a8 8 0 0 0 8-8v-168a32 32 0 0 0-32-32h-284a32 32 0 0 0-32 32v736a32 32 0 0 0 32 32H880a32 32 0 0 0 32-32v-168a8 8 0 0 0-8-8h-60a8 8 0 0 0-8 8V707.968H640v-286.016h136V503.36c0 7.136 8.192 11.2 13.824 6.72l150.912-119.392a8.544 8.544 0 0 0 0-13.44l-150.912-119.392a8.544 8.544 0 0 0-13.824 6.72v81.408z"  horiz-adv-x="1024" />

    
    <glyph glyph-name="sort-ascending" unicode="&#60745;" d="M407.392 125.984H297.984V792a40 40 0 1 1-80 0v-666.016H108.576a12.608 12.608 0 0 1-9.504-20.992l144.704-164.096a18.944 18.944 0 0 1 28.48 0l144.608 164.096a12.832 12.832 0 0 1 3.2 8.384 12.704 12.704 0 0 1-12.704 12.608z m277.504 422.72h131.392l28.512-90.688H928L812.992 788.512a64.64 64.64 0 1 1-122.176 0l-114.784-330.496h80.384l28.512 90.688z m64.8 211.808h1.792l48-153.184h-97.696l47.904 153.184z m139.712-503.2a32 32 0 0 1-24.384 52.704h-221.312a32.288 32.288 0 1 1 0-64.576h153.504v-2.112l-190.208-256.192 0.096-0.192a32 32 0 0 1 25.888-50.784h230.592a32.384 32.384 0 1 1 0 64.768h-162.208v1.792l188 254.592z"  horiz-adv-x="1024" />

    
    <glyph glyph-name="shuipingfenbu" unicode="&#60746;" d="M128 832h64v-896H128z m704 0h64v-896h-64z m-128-768a64 64 0 0 0-64-64h-256a64 64 0 0 0-64 64V704a64 64 0 0 0 64 64h256a64 64 0 0 0 64-64v-640z m-64 0V704h-256v-640h256z"  horiz-adv-x="1024" />

    
    <glyph glyph-name="subnode" unicode="&#60747;" d="M418.368 348H236.992v72h181.376a272 272 0 1 0 0-72z m235.648 69.984H568a8 8 0 0 1-8-8v-52c0-4.416 3.584-8 8-8h86.016v-86.016c0-4.416 3.584-8 8-8h52a8 8 0 0 1 8 8v86.016h86.016a8 8 0 0 1 8 8v52a8 8 0 0 1-8 8h-86.016V504a8 8 0 0 1-8 8h-52a8 8 0 0 1-8-8v-86.016zM64 384a96 96 0 1 1 192 0 96 96 0 1 1-192 0z"  horiz-adv-x="1024" />

    
    <glyph glyph-name="superscript" unicode="&#60748;" d="M184.192 631.776A17.152 17.152 0 0 1 169.6 640H83.2a15.264 15.264 0 0 1-8.736-2.528l-0.16-0.128-0.192-0.096a16.928 16.928 0 0 1-5.152-23.488l188.576-299.168-191.04-304.608a17.024 17.024 0 0 1 14.432-25.984h77.632a16.96 16.96 0 0 1 14.4 8.064l149.664 242.592 148.736-242.4a16.832 16.832 0 0 1 14.368-8.032h84.384a16.96 16.96 0 0 1 14.272 26.144l-192.512 299.264 195.392 303.904a17.024 17.024 0 0 1-14.208 26.24h-80.32a17.024 17.024 0 0 1-14.496-8.096l-0.032-0.064-146.304-244.864-147.68 245.024zM704 556.96v-68.96c0-4.416 3.584-8 8-8h240a8 8 0 0 1 8 8v64a8 8 0 0 1-8 8h-159.904l166.88 189.696a7.936 7.936 0 0 1 1.984 5.28v0.064l-0.608 69.024a8 8 0 0 1-8 7.936H712a8 8 0 0 1-8-8v-64c0-4.416 3.584-8 8-8h161.888l-167.872-189.728a8 8 0 0 1-2.016-5.312z"  horiz-adv-x="1024" />

    
    <glyph glyph-name="successful" unicode="&#60749;" d="M357.472 47.584c12.16-0.096 24.352 4.48 33.664 13.76L949.696 619.904a47.04 47.04 0 0 1 0 66.464l-1.408 1.408a46.976 46.976 0 0 1-66.464 0L357.472 163.456l-207.776 207.776a47.008 47.008 0 0 1-66.464 0l-1.408-1.408a46.976 46.976 0 0 1 0-66.464l241.984-241.984c9.28-9.28 21.504-13.888 33.696-13.76z"  horiz-adv-x="1024" />

    
    <glyph glyph-name="tag" unicode="&#60750;" d="M527.744 864c20.8-0.192 40.32-8.32 55.04-23.04l386.112-386.24c14.912-14.848 23.104-34.56 23.104-55.68 0-20.992-8.192-40.704-23.04-55.552L552.448-73.024a78.336 78.336 0 0 0-55.68-22.976h-0.224a77.856 77.856 0 0 0-55.392 23.04L55.104 313.216A78.08 78.08 0 0 0 32 368.448V785.28C32 828.8 67.2 864 110.72 864h417.024zM267.136 628.864a128.096 128.096 0 1 1 181.184-181.12 128.096 128.096 0 1 1-181.184 181.12z"  horiz-adv-x="1024" />

    
    <glyph glyph-name="setting" unicode="&#60751;" d="M924.8 270.304l-65.504 56a359.2 359.2 0 0 1 0 115.584l65.504 56c10.112 8.608 13.792 22.592 9.312 35.2l-0.896 2.592a443.584 443.584 0 0 1-79.712 137.888l-1.792 2.112a32.128 32.128 0 0 1-35.104 9.504l-81.312-28.896a352.128 352.128 0 0 1-99.712 57.6l-15.712 84.992a32.064 32.064 0 0 1-25.792 25.696l-2.688 0.512a451.424 451.424 0 0 1-159.008 0l-2.688-0.512a32.064 32.064 0 0 1-25.792-25.696l-15.808-85.408a351.904 351.904 0 0 1-99.008-57.408l-81.888 29.088a31.968 31.968 0 0 1-35.104-9.504l-1.792-2.112a445.76 445.76 0 0 1-79.712-137.888l-0.896-2.592c-4.512-12.512-0.8-26.496 9.312-35.2l66.304-56.608a351.68 351.68 0 0 1-4.608-57.088c0-19.2 1.504-38.4 4.608-57.088l-66.304-56.608a32.032 32.032 0 0 1-9.312-35.2l0.896-2.592a444.672 444.672 0 0 1 79.712-137.888l1.792-2.112c8.608-10.112 22.496-13.888 35.104-9.504l81.888 29.088a349.184 349.184 0 0 1 99.008-57.408l15.808-85.408c2.4-13.088 12.704-23.296 25.792-25.696l2.688-0.512a449.088 449.088 0 0 1 158.976 0l2.688 0.512c13.088 2.4 23.392 12.608 25.792 25.696l15.712 84.992a350.304 350.304 0 0 1 99.712 57.6l81.312-28.896a32 32 0 0 1 35.104 9.504l1.792 2.112a446.4 446.4 0 0 1 79.712 137.888l0.896 2.592a31.872 31.872 0 0 1-9.312 35.008z m-136.512 159.808a283.456 283.456 0 0 0 0-92.224l-6.592-40.096 74.688-63.904c-11.296-26.112-25.6-50.688-42.592-73.6l-92.8 32.896-31.392-25.792a278.72 278.72 0 0 0-79.296-45.792l-38.112-14.304-17.888-96.992c-28.096-3.2-56.8-3.2-84.992 0l-17.888 97.216-37.792 14.496a279.168 279.168 0 0 0-78.688 45.696l-31.392 25.888-93.408-33.216a378.656 378.656 0 0 0-42.592 73.6l75.488 64.512-6.496 40A288.096 288.096 0 0 0 232.832 384c0 15.296 1.184 30.592 3.712 45.504l6.496 40-75.488 64.512c11.296 26.112 25.6 50.688 42.592 73.6l93.408-33.184 31.392 25.888a280.032 280.032 0 0 0 78.688 45.696l37.888 14.304 17.888 97.184c28.096 3.2 56.8 3.2 84.992 0l17.888-96.992 38.112-14.304a281.568 281.568 0 0 0 79.296-45.792l31.392-25.792 92.8 32.896c16.992-22.912 31.2-47.616 42.592-73.6l-74.688-63.904 6.496-39.904zM512 569.984a176 176 0 1 1 0.032-352.032A176 176 0 0 1 512 569.984z m79.2-255.2c-21.216-21.088-49.312-32.8-79.2-32.8s-58.016 11.712-79.2 32.8c-21.088 21.216-32.8 49.312-32.8 79.2s11.712 58.016 32.8 79.2c21.184 21.184 49.312 32.8 79.2 32.8s58.016-11.616 79.2-32.8c21.088-21.184 32.8-49.312 32.8-79.2s-11.712-57.984-32.8-79.2z"  horiz-adv-x="1024" />

    
    <glyph glyph-name="text" unicode="&#60752;" d="M763.84 633.6H260.8a8 8 0 0 1-8-8v-128c0-4.416 3.584-8 8-8H316.8a8 8 0 0 1 8 8v64h147.52v-355.2h-92.032a8 8 0 0 1-8-8v-56c0-4.416 3.648-8 8-8h264.064a8 8 0 0 1 8 8V198.4a8 8 0 0 1-8 8H552.32v355.2h147.52v-64c0-4.416 3.584-8 8-8h56a8 8 0 0 1 8 8v128a8 8 0 0 1-8 8z m116.16 150.4h-736a32 32 0 0 1-32-32v-736a32 32 0 0 1 32-32h736a32 32 0 0 1 32 32v736a32 32 0 0 1-32 32z m-40-728H184V712h656v-656z"  horiz-adv-x="1024" />

    
    <glyph glyph-name="toc" unicode="&#60753;" d="M392 736h512a8 8 0 0 0 8-8v-112a8 8 0 0 0-8-8h-512a8 8 0 0 0-8 8v112a8 8 0 0 0 8 8z m128-288h384a8 8 0 0 0 8-8v-112a8 8 0 0 0-8-8h-384a8 8 0 0 0-8 8v112a8 8 0 0 0 8 8z m0-288h384a8 8 0 0 0 8-8v-112a8 8 0 0 0-8-8h-384a8 8 0 0 0-8 8v112a8 8 0 0 0 8 8zM180 417.504h228a8 8 0 0 0 8-8v-52a8 8 0 0 0-8-8H180v-219.488h228a8 8 0 0 0 8-8v-52a8 8 0 0 0-8-8H153.984a42.016 42.016 0 0 0-42.016 42.016v560c0 23.2 18.816 42.016 42.016 42.016h126.112a8 8 0 0 0 8-8v-52a8 8 0 0 0-8-8H179.968v-220.512z"  horiz-adv-x="1024" />

    
    <glyph glyph-name="tiaojiangeshi" unicode="&#60754;" d="M875.872 779.52c17.472 0 31.648-16.096 31.648-35.968v-719.104c0-19.872-14.176-35.968-31.648-35.968H148.128c-17.472 0-31.648 16.096-31.648 35.968V743.552c0 19.872 14.176 35.968 31.648 35.968h727.744zM314.24 356.32H187.68v-280.8c0-8.736 7.072-15.808 15.808-15.808H314.24v296.64z m340.128-154.368l-203.2-142.272h203.2v142.272z m181.952 154.368H709.76v-296.64h110.752a15.808 15.808 0 0 1 15.808 15.808v280.8z m-181.952 24.224l-284.768-199.392v-111.008l284.768 199.392v111.008z m0 182.24l-284.768-199.392v-114.624l284.768 199.392v114.624zM314.24 708.32H203.488a15.808 15.808 0 0 1-15.808-15.808v-280.8H314.24v296.64z m506.24 0h-110.752v-296.64h126.56V692.48a15.808 15.808 0 0 1-15.808 15.808z m-166.112 0h-50.432l-234.336-164.096v-113.248l284.768 199.392V708.32z m-146.944 0H369.6V611.84l137.824 96.48z"  horiz-adv-x="1024" />

    
    <glyph glyph-name="translate" unicode="&#60755;" d="M640 60V-16H96a32 32 0 0 0-32 32v736a32 32 0 0 0 32 32h672a32 32 0 0 0 32-32V544h-76V708H140v-648H640z m88 156v80H640v-80h88z m72 0h88v80H800v-80z m-72 152v92.992a8 8 0 0 0 8 8h56a8 8 0 0 0 8-8V368h136a24 24 0 0 0 24-24v-176a24 24 0 0 0-24-24H800v-152a8 8 0 0 0-8-8H736a8 8 0 0 0-8 8V144H592a24 24 0 0 0-24 24v176a24 24 0 0 0 24 24h136z m-406.08-12l-32.672-94.624a8 8 0 0 0-7.552-5.376H226.624a8 8 0 0 0-7.552 10.656l-0.032-0.064 127.104 368a8 8 0 0 0 7.552 5.376h60.608c3.488 0 6.432-2.24 7.552-5.344l0.032-0.064 96.224-278.624H321.92z m19.328 56h85.504L384 535.776l-42.752-123.776z"  horiz-adv-x="1024" />

    
    <glyph glyph-name="undo" unicode="&#60756;" d="M280 575.008v-103.136a10.816 10.816 0 0 0-17.536-8.512L71.136 614.496a10.784 10.784 0 0 0 0 16.992l191.328 151.136a10.816 10.816 0 0 0 17.536-8.512v-103.136h332.992c189.984 0 344-154.016 344-344s-154.016-344-344-344h-154.272a8 8 0 0 0-8 8v80a8 8 0 0 0 8 8h154.272a248 248 0 0 1 0 496H280z"  horiz-adv-x="1024" />

    
    <glyph glyph-name="tuwenkapian" unicode="&#60757;" d="M910.24 853.344c39.264 0 71.072-31.84 71.072-71.072v-796.512a71.072 71.072 0 0 0-71.072-71.072H113.728a71.072 71.072 0 0 0-71.072 71.072V782.272c0 39.264 31.84 71.072 71.072 71.072z m-21.312-426.688L128 427.264V0h768V427.168a48.32 48.32 0 0 0-7.072-0.512z m-284.512-256a49.792 49.792 0 0 0 0-99.584H277.344a49.792 49.792 0 0 0 0 99.584h327.072z m142.24 177.76a49.76 49.76 0 1 0 0-99.52H277.312a49.76 49.76 0 1 0 0 99.52h469.344zM896 768H128v-242.336c2.112 0.352 4.544 0.576 7.04 0.608L896 525.76V768.032z"  horiz-adv-x="1024" />

    
    <glyph glyph-name="table" unicode="&#60758;" d="M1027.712 746.56H170.784a32.96 32.96 0 0 1-32.96-32.96v-659.168c0-18.208 14.752-32.96 32.96-32.96h856.928a32.96 32.96 0 0 1 32.96 32.96V713.6a32.96 32.96 0 0 1-32.96 32.96z m-41.184-214.24h-218.4V672.384h218.4v-140.064z m0-230.72h-218.4v164.8h218.4v-164.8z m-490.304 164.8h205.984v-164.8h-205.92v164.8z m205.984 65.92h-205.92V672.384h205.984v-140.064z m-490.24-65.92h218.4v-164.8H211.904v164.8z m0 205.984h218.4v-140.064H211.904V672.384z m0-436.704h218.4v-140.064H211.904v140.064z m284.32 0h205.984v-140.064h-206.048v140.064z m490.24-140.064h-218.4v140.064h218.4v-140.064z"  horiz-adv-x="1184" />

    
    <glyph glyph-name="underline" unicode="&#60759;" d="M200 96h624c4.384 0 8-4.32 8-9.6v-76.8c0-5.28-3.616-9.6-8-9.6H200c-4.416 0-8 4.32-8 9.6v76.8c0 5.28 3.584 9.6 8 9.6zM512 168c-69.408 0-134.688 27.008-183.808 76.192s-76.192 114.4-76.192 183.808v312c0 6.592 5.408 12 12 12h60c6.592 0 12-5.408 12-12v-312c0-96.992 79.008-176 176-176s176 79.008 176 176v312c0 6.592 5.408 12 12 12h60c6.592 0 12-5.408 12-12v-312c0-69.408-27.008-134.688-76.192-183.808S581.408 168 512 168z"  horiz-adv-x="1024" />

    
    <glyph glyph-name="unlock-fill" unicode="&#60760;" d="M832 432H332v224c0 30.912 25.088 56 56 56h248c30.912 0 56-25.088 56-56v-68c0-4.384 3.616-8 8-8h56c4.384 0 8 3.616 8 8V656a128 128 0 0 1-128 128h-248a128 128 0 0 1-128-128v-224H192a32 32 0 0 1-32-32v-384a32 32 0 0 1 32-32h640a32 32 0 0 1 32 32v384a32 32 0 0 1-32 32z m-292-236.992v-52.992c0-4.384-3.616-8-8-8h-40a8.032 8.032 0 0 0-8 8v52.992a48 48 0 1 0 56 0z"  horiz-adv-x="1024" />

    
    <glyph glyph-name="strikethrough" unicode="&#60761;" d="M552.544 336H72a8 8 0 0 0-8 8v80a8 8 0 0 0 8 8h220.192a138.752 138.752 0 0 0-23.392 31.968c-11.616 21.984-17.28 46.944-17.28 76.48 0 34.528 6.752 65.856 20.256 92.896 13.216 26.56 32.96 49.344 58.56 67.744C376.192 733.92 441.312 752 513.6 752c79.008 0 144.352-21.28 188.704-61.664 31.68-28.64 52.32-66.848 59.648-110.304 0.704-3.872 1.28-9.248 1.984-16v-0.992a10.176 10.176 0 0 0-10.112-10.144h-72.768a10.112 10.112 0 0 0-9.92 8.16 171.04 171.04 0 0 1-4.256 17.792 126.528 126.528 0 0 1-31.776 52.608c-28.704 28.352-70.976 42.784-125.76 42.784-48.032 0-88.448-11.136-116.832-32.128-28.8-21.28-43.968-52.032-43.968-89.024 0-36.8 17.088-64.64 52.224-85.152 24.608-14.208 55.488-24.16 106.816-34.208l8.896-1.728h435.584a8 8 0 0 0 8-8v-80a8 8 0 0 0-8-8H752.96c4.736-6.048 9.152-12.864 12.96-20.064l0.352-0.768c12-22.976 17.76-49.536 17.76-81.344 0-33.632-6.656-64.448-19.648-91.488a188.096 188.096 0 0 0-57.088-69.024c-49.44-37.504-120.032-57.28-204.192-57.28-78.432 0-144.736 18.4-191.776 53.216-40.416 29.952-64.224 69.92-70.688 118.752a213.504 213.504 0 0 0-0.608 5.664v0.992c0 5.568 4.576 10.144 10.112 10.144h79.712c4.48 0 8.544-3.072 9.728-7.456 0.992-3.776 1.888-6.752 2.688-8.96 10.528-29.728 30.56-53.216 59.648-69.536 29.472-16.512 66.496-24.96 110.176-24.96 54.912 0 100.064 12.544 130.528 36.416a110.752 110.752 0 0 1 43.584 88.832c0 39.776-17.472 68.832-53.312 89.024-14.592 8.16-32.16 15.008-55.2 21.472a558.816 558.816 0 0 1-25.184 6.4z"  horiz-adv-x="1024" />

    
    <glyph glyph-name="up" unicode="&#60762;" d="M890.496 140.704L537.888 626.816a31.936 31.936 0 0 1-51.712 0L133.472 140.704a8 8 0 0 1 6.496-12.704h75.008a16.096 16.096 0 0 1 12.896 6.592l284.096 391.616 284.096-391.616a16.096 16.096 0 0 1 12.896-6.592h75.008c6.496 0 10.304 7.392 6.496 12.704z"  horiz-adv-x="1024" />

    
    <glyph glyph-name="unorderedlist" unicode="&#60763;" d="M360 736h560a8 8 0 0 0 8-8v-80a8 8 0 0 0-8-8h-560a8 8 0 0 0-8 8v80a8 8 0 0 0 8 8z m0-304h560a8 8 0 0 0 8-8v-80a8 8 0 0 0-8-8h-560a8 8 0 0 0-8 8v80a8 8 0 0 0 8 8z m0-304h560a8 8 0 0 0 8-8v-80a8 8 0 0 0-8-8h-560a8 8 0 0 0-8 8v80a8 8 0 0 0 8 8zM96 688a80 80 0 1 1 160 0 80 80 0 1 1-160 0zM96 384a80 80 0 1 1 160 0 80 80 0 1 1-160 0z m0-304a80 80 0 1 1 160 0 80 80 0 1 1-160 0z"  horiz-adv-x="1024" />

    
    <glyph glyph-name="upload" unicode="&#60764;" d="M505.696 732.928a8 8 0 0 0 12.608 0l112-141.696a8 8 0 0 0-6.304-12.896h-74.112v-338.4c0-4.384-3.616-8-8-8h-60a8.032 8.032 0 0 0-8 8V578.24H400a8 8 0 0 0-6.304 12.896l112 141.792z m372.32-462.944h-60a8.032 8.032 0 0 1-8-8v-154.016H214.016v154.016a8 8 0 0 1-8 8H146.016a8 8 0 0 1-8-8v-198.016a32 32 0 0 1 32-32h684a32 32 0 0 1 32 32v198.016a8.032 8.032 0 0 1-8 8z"  horiz-adv-x="1024" />

    
    <glyph glyph-name="subscript" unicode="&#60765;" d="M184.192 775.776A17.152 17.152 0 0 1 169.6 784H83.2a15.264 15.264 0 0 1-8.736-2.528l-0.16-0.128-0.192-0.096a16.928 16.928 0 0 1-5.152-23.488l188.576-299.168-191.04-304.608a17.024 17.024 0 0 1 14.432-25.984h77.632a16.96 16.96 0 0 1 14.4 8.064l149.664 242.592 148.736-242.4a16.832 16.832 0 0 1 14.368-8.032h84.384a16.96 16.96 0 0 1 14.272 26.144l-192.512 299.264 195.392 303.904a17.024 17.024 0 0 1-14.208 26.24h-80.32a17.024 17.024 0 0 1-14.496-8.096l-0.032-0.064-146.304-244.864-147.68 245.024zM704 12.992v-68.992c0-4.416 3.584-8 8-8h240a8 8 0 0 1 8 8v64a8 8 0 0 1-8 8h-160.896l166.912 189.728a7.936 7.936 0 0 1 1.984 5.28V280a8 8 0 0 1-8 8h-240a8 8 0 0 1-8-8v-64c0-4.416 3.584-8 8-8h160.896l-166.912-189.728a7.936 7.936 0 0 1-1.984-5.28z"  horiz-adv-x="1024" />

    
    <glyph glyph-name="xingzhuang" unicode="&#60766;" d="M143.232 863.744h238.848v-960.576H143.232V863.808z m480.64 0h241.088v-960.576h-241.088V863.808z"  horiz-adv-x="1024" />

    
    <glyph glyph-name="wendangweigengxin" unicode="&#60767;" d="M680 376a208 208 0 1 0-199.2-268H430.72a16 16 0 0 0-13.088 25.216l-0.032-0.064 81.28 116.096a16 16 0 0 0 26.176 0.032l0.032-0.064 81.28-116.096a16 16 0 0 0-13.12-25.184h-26.336a128.16 128.16 0 0 1 113.056-68 128 128 0 0 1 0.032 256 40 40 0 0 0 0 80z m34.112 436a133.92 133.92 0 0 0 133.824-129.792l0.064-4.096V436.288a40 40 0 0 0-79.904-2.656v0.128L768 436.384V678.08c0 28.704-22.464 52.192-50.784 53.792h-0.128l-2.976 0.096H277.888c-28.704 0-52.192-22.464-53.792-50.784v-0.128L224 678.08v-576.224c0-28.736 22.464-52.192 50.784-53.792h0.128l2.944-0.096h94.208a40 40 0 0 0 2.656-79.904h-0.128l-2.624-0.096H277.856a133.888 133.888 0 0 0-133.824 129.568v0.224l-0.064 4.096V678.08a133.92 133.92 0 0 0 129.792 133.824l4.096 0.064h436.224z m-258.112-408a40 40 0 0 0 0-80h-80a40 40 0 0 0 0 80h80z m160 184a40 40 0 0 0 0-80h-240a40 40 0 0 0 0 80h240z"  horiz-adv-x="1024" />

    
    <glyph glyph-name="wrap" unicode="&#60768;" d="M97.152 721.504c-19.424 0-35.168-15.744-35.168-35.168v-604.704a35.168 35.168 0 1 1 70.336 0V686.304c0 19.424-15.744 35.168-35.168 35.168z m829.696 0c-19.424 0-35.168-15.744-35.168-35.168v-604.704a35.168 35.168 0 1 1 70.336 0V686.304c0 19.424-15.744 35.168-35.168 35.168zM550.24 680.192H265.92a35.168 35.168 0 1 1 0-70.336h284.32a172.736 172.736 0 0 0 0-345.408h-150.72v97.024a11.072 11.072 0 0 1-18.464 8.352l-144.224-127.168a16.704 16.704 0 0 1 0-25.056l144.224-127.104a11.104 11.104 0 0 1 18.464 8.256v95.36h150.72a243.008 243.008 0 0 1 0 486.016z"  horiz-adv-x="1024" />

    
    <glyph glyph-name="unlink" unicode="&#60769;" d="M449.984 537.408a8 8 0 0 1 11.328 0l116.16 116.224c53.824 53.76 144.64 59.52 204.032 0 26.272-26.048 42.528-62.112 42.528-102.016s-16.256-75.968-42.528-102.016l-116.224-116.224a8.032 8.032 0 0 1 0-11.264l39.808-39.808a8 8 0 0 1 11.328 0l116.16 116.224C871.744 437.664 896 491.744 896 551.488s-24.224 113.824-63.424 152.96c-39.136 39.136-93.216 63.36-152.96 63.36s-113.824-24.224-152.96-63.36l-116.288-116.16a8.032 8.032 0 0 1 0-11.264l39.68-39.68z m47.36-473.984l90.368 90.112a8 8 0 0 1 0 11.328l-39.68 39.68a8 8 0 0 1-11.328 0l-90.112-90.112c-53.824-53.824-144.64-59.52-204.032 0-59.52 59.52-53.76 150.144 0 203.968l90.176 90.176a8.032 8.032 0 0 1 0 11.264l-39.808 39.808a8 8 0 0 1-11.328 0l-90.112-90.176c-39.136-39.168-63.328-93.28-63.328-153.024s24.192-113.856 63.328-153.024C230.624 24.256 284.704 0 344.448 0s113.824 24.224 152.96 63.424z m-97.088 167.232a8.032 8.032 0 0 1 11.264 0l102.4 102.272c3.136 3.072 0 11.328 0 11.328l-39.616 39.552a8.032 8.032 0 0 1-11.264 0L360.768 281.6a8 8 0 0 1 0-11.328l39.488-39.552z m177.664 177.664a8 8 0 0 1 11.328 0l95.552 95.488c3.136 3.136 0 11.328 0 11.328l-39.552 39.552a8 8 0 0 1-11.328 0l-95.36-95.36a8 8 0 0 1 0-11.328l39.424-39.616z m235.744-321.984l-27.168-27.168q-9.056-9.056-18.112 0L198.176 629.376q-9.056 9.056 0 18.112l27.168 27.168q9.056 9.056 18.112 0l570.208-570.208q9.056-9.056 0-18.112z"  horiz-adv-x="1024" />

    
    <glyph glyph-name="xiangxia" unicode="&#60770;" d="M906.816 548.64l-64.96-0.544c-11.2-0.096-21.888-4.576-29.792-12.512l-277.024-277.056a30.624 30.624 0 0 0-38.72-3.872l0.128-0.064-4.832 3.936-279.168 279.2a42.56 42.56 0 0 1-30.176 12.48h-1.024 0.064l-62.24-1.408a18.816 18.816 0 0 1-12.832-32.064l387.776-387.744a27.264 27.264 0 0 1 38.624 0l387.648 387.648a18.752 18.752 0 0 1-13.28 32.032h-0.192z"  horiz-adv-x="1024" />

    
    <glyph glyph-name="yincangicon" unicode="&#60771;" d="M942.272 409.6l-0.064 0.128-0.128 0.064c-36.352 76.736-80 138.688-130.688 185.984l-50.688-50.752c43.712-40.192 81.472-93.696 114.112-160.896-83.328-172.352-201.408-254.08-362.816-254.08-51.328 0-98.304 8.256-141.184 25.024l-54.72-54.656c58.496-28.16 123.712-42.432 195.904-42.432 192.192 0 335.36 100.48 430.208 300.288a59.744 59.744 0 0 1-0.096 51.68l0.16-0.352z m-64 332.16l-42.368 42.432a8 8 0 0 1-11.328 0L707.84 667.52c-58.368 28.288-123.52 42.496-195.776 42.496-192.192 0-335.36-100.48-430.208-300.288v-0.128a60.032 60.032 0 0 1 0.16-51.872l-0.16 0.352c36.416-76.672 80-138.688 130.688-186.112l-100.672-100.48a8.032 8.032 0 0 1 0-11.264l42.368-42.432a8 8 0 0 1 11.328 0L878.272 730.624a8 8 0 0 1 0 11.2z m-479.36-383.168a112 112 0 0 0 135.264 134.4l-0.768 0.16-134.592-134.528z m184.512 184.512a176.128 176.128 0 0 1-234.048-235.552l-0.448 1.056-85.632-85.632c-43.712 40.256-81.472 93.696-114.112 160.896C232.576 556.224 350.72 637.952 512 637.952c51.328 0 98.304-8.256 141.184-25.024l-69.76-69.824zM508.032 272c-6.4 0-12.736 0.512-18.816 1.6l-51.136-51.072a173.184 173.184 0 0 1 70.016-14.528 176 176 0 0 1 161.024 247.136l0.448-1.12-51.072-51.136a112.096 112.096 0 0 0-110.528-130.88z"  horiz-adv-x="1024" />

    
    <glyph glyph-name="youduiqi" unicode="&#60772;" d="M960 832h-64v-896h64zM128 576a64 64 0 0 1-64-64v-256a64 64 0 0 1 64-64h640a64 64 0 0 1 64 64v256a64 64 0 0 1-64 64H128z m0-64h640v-256H128v256z"  horiz-adv-x="1024" />

    
    <glyph glyph-name="wubiankuang2" unicode="&#60773;" d="M921.12 766.816l37.696-37.696c8.32-8.32 10.016-20.16 3.776-26.4L193.28-66.592c-6.24-6.24-18.08-4.544-26.4 3.776l-37.728 37.696c-8.32 8.32-10.016 20.16-3.776 26.4L894.688 770.592c6.24 6.24 18.08 4.576 26.4-3.776zM896 515.648V64a64 64 0 0 0-64-64H380.352l96 96H480v3.648l96 96V96h224v240h-83.648L896 515.648zM771.616 768l-96-96H576v-99.648l-96-96V672H224v-240h211.648l-96-96H224v-115.648l-96-96V703.968a64 64 0 0 0 64 64h579.616z"  horiz-adv-x="1024" />

    
    <glyph glyph-name="zanting" unicode="&#60774;" d="M191.392 767.808h191.072V-0.64H191.392V767.872z m384.512 0h192.864V-0.64h-192.864V767.872z"  horiz-adv-x="1024" />

    
    <glyph glyph-name="zhidi" unicode="&#60775;" d="M448 0a64 64 0 0 0-64 64v192h64v-192h384V448h-192v64h192a64 64 0 0 0 64-64v-384a64 64 0 0 0-64-64H448zM263.104 320h49.792c3.904 0 7.104 3.2 7.104 7.104V376.96a7.104 7.104 0 0 1-7.104 7.04H263.04a7.104 7.104 0 0 1-7.04-7.104v-49.792c0-3.904 3.2-7.104 7.104-7.104z m-128 0h49.792C188.8 320 192 323.2 192 327.104V376.96a7.104 7.104 0 0 1-7.104 7.04H135.04a7.104 7.104 0 0 1-7.04-7.104v-49.792c0-3.904 3.2-7.104 7.104-7.104z m0 128h49.792C188.8 448 192 451.2 192 455.104V504.96a7.104 7.104 0 0 1-7.104 7.04H135.04a7.104 7.104 0 0 1-7.04-7.104v-49.792c0-3.904 3.2-7.104 7.104-7.104z m0 128h49.792C188.8 576 192 579.2 192 583.104V632.96A7.104 7.104 0 0 1 184.896 640H135.04a7.104 7.104 0 0 1-7.04-7.104v-49.792c0-3.904 3.2-7.104 7.104-7.104z m0 128h49.792C188.8 704 192 707.2 192 711.104V760.96A7.104 7.104 0 0 1 184.896 768H135.04a7.104 7.104 0 0 1-7.04-7.104v-49.792C128 707.2 131.2 704 135.104 704z m128 0h49.792C316.8 704 320 707.2 320 711.104V760.96A7.104 7.104 0 0 1 312.896 768H263.04a7.104 7.104 0 0 1-7.04-7.104v-49.792C256 707.2 259.2 704 263.104 704z m128 0h49.792C444.8 704 448 707.2 448 711.104V760.96a7.104 7.104 0 0 1-7.104 7.04H391.04a7.104 7.104 0 0 1-7.04-7.104v-49.792c0-3.904 3.2-7.104 7.104-7.104z m128 0h49.792C572.8 704 576 707.2 576 711.104V760.96a7.104 7.104 0 0 1-7.104 7.04H519.04a7.104 7.104 0 0 1-7.04-7.104v-49.792c0-3.904 3.2-7.104 7.104-7.104z m0-128h49.792c3.904 0 7.104 3.2 7.104 7.104V632.96a7.104 7.104 0 0 1-7.104 7.04H519.04a7.104 7.104 0 0 1-7.04-7.104v-49.792c0-3.904 3.2-7.104 7.104-7.104z m0-128h49.792c3.904 0 7.104 3.2 7.104 7.104V504.96a7.104 7.104 0 0 1-7.104 7.04H519.04a7.104 7.104 0 0 1-7.04-7.104v-49.792c0-3.904 3.2-7.104 7.104-7.104z m0-128h49.792c3.904 0 7.104 3.2 7.104 7.104V376.96a7.104 7.104 0 0 1-7.104 7.04H519.04a7.104 7.104 0 0 1-7.04-7.104v-49.792c0-3.904 3.2-7.104 7.104-7.104z m-128 0h49.792c3.904 0 7.104 3.2 7.104 7.104V376.96a7.104 7.104 0 0 1-7.104 7.04H391.04a7.104 7.104 0 0 1-7.04-7.104v-49.792c0-3.904 3.2-7.104 7.104-7.104z"  horiz-adv-x="1024" />

    
    <glyph glyph-name="zhixian" unicode="&#60776;" d="M550.4 166.4H896v-76.8H473.6v256H128v76.8h345.6v256H896v-76.8H550.4v-435.2z"  horiz-adv-x="1024" />

    
    <glyph glyph-name="zishiying" unicode="&#60777;" d="M886.848 13.664H137.12a9.184 9.184 0 0 1-9.152-9.056V-64c0-5.056 4.096-9.152 9.152-9.152h749.728A9.152 9.152 0 0 1 896-64v68.608a9.12 9.12 0 0 1-9.152 9.056z m0 827.488H137.12A9.152 9.152 0 0 1 127.968 832v-68.608c0-4.96 4.096-9.152 9.152-9.152h749.728A9.152 9.152 0 0 1 896 763.392V832a9.152 9.152 0 0 1-9.152 9.152z m-261.92-304a8.32 8.32 0 0 1 6.496 13.376l-115.2 145.76a8.192 8.192 0 0 1-12.928 0v-0.032l-115.2-145.76a8.256 8.256 0 0 1 6.464-13.376H470.88v-306.336H399.04h-0.032a8.256 8.256 0 0 1-6.464-13.408v0.032l115.2-145.696a8.192 8.192 0 0 1 12.928 0v0.032l115.2 145.696a8.256 8.256 0 0 1-6.464 13.376h-76.224v306.336h71.84z"  horiz-adv-x="1024" />

    
    <glyph glyph-name="xuanzequyu" unicode="&#60778;" d="M702.016 31.872a29.6 29.6 0 0 0-2.464 0.192h0.096a17.152 17.152 0 0 0-15.072 13.312l-0.032 0.128-10.56 48.704-63.36 291.648a17.248 17.248 0 0 0 1.312 13.472l-0.032-0.096 0.64 1.152a16.992 16.992 0 0 0 1.28 1.632v-0.032l-1.92-2.688a19.52 19.52 0 0 0 4.96 5.728l0.032 0.032a16.576 16.576 0 0 0 16.512 2.656l-0.128 0.032 3.2-1.6 312.96-134.336a19.072 19.072 0 0 0 6.432-5.696l0.032-0.064a16.928 16.928 0 0 0 2.4-12.32v0.096c-0.832-6.592-3.776-11.136-8.768-13.696l-4.096-1.536-102.464-27.52 89.152-116.864a18.112 18.112 0 0 0 3.552-13.664v0.096a18.304 18.304 0 0 0-6.496-12.064l-0.032-0.032-41.984-33.408a20.16 20.16 0 0 0-3.84-2.336l-0.128-0.032 3.968 2.368a17.76 17.76 0 0 0-6.592-3.296l-0.128-0.032a17.024 17.024 0 0 0-6.496-0.192h0.096L872.832 32h-0.192l-3.072 0.832a18.432 18.432 0 0 0-3.744 2.144l0.032-0.032-0.576 0.448a18.624 18.624 0 0 0-3.104 3.04l-0.032 0.032-84.608 111.04-25.408-45.504-35.072-63.104a16.96 16.96 0 0 0-10.56-8.48l-0.128-0.032-2.88-0.384h-0.064l-0.384-0.064h-1.088zM928 736c15.648 0 28.64-11.232 31.456-26.048l0.032-0.192L960 704v-332.224l-72 30.912V464h-142.848l-69.12 29.632-6.848 3.136a110.016 110.016 0 0 1-41.792 8.064c-26.496 0-50.848-9.184-70.048-24.576l0.224 0.16a120.512 120.512 0 0 1-16.736-16.288l-0.16-0.16h-128.64v-160h118.144l13.888-64h-132.032v-136h161.6l15.616-72H96c-15.648 0-28.64 11.232-31.456 26.048l-0.032 0.192-0.512 5.76v640a32 32 0 0 0 26.048 31.456l0.192 0.032 5.76 0.512h832zM347.968 240H136.064v-136h212.032V240z m0 224H136.064v-160h212.032v160zM888 664h-212.032v-136h212.032V664z m-276.032 0h-199.936v-136h200V664z m-263.936 0H135.936v-136h212.032V664z"  horiz-adv-x="1024" />

    
    <glyph glyph-name="zoom-out" unicode="&#60779;" d="M416 784a304 304 0 0 0 240.096-490.496l253.6-253.6a8 8 0 0 0 0-11.296l-42.304-42.304a8 8 0 0 0-11.296 0l-253.6 253.6A304 304 0 0 0 112 480 304 304 0 0 0 416 784zM254.816 318.784c43.008-43.104 100.288-66.784 161.184-66.784s118.208 23.712 161.184 66.784c43.104 43.008 66.784 100.288 66.784 161.184s-23.712 118.208-66.784 161.184C534.176 684.256 476.896 707.968 416 707.968s-118.208-23.712-161.184-66.816c-43.104-43.008-66.816-100.288-66.816-161.184s23.712-118.208 66.816-161.184z m41.184 195.2h240q8 0 8-8v-52q0-8-8-8h-240q-8 0-8 8v52q0 8 8 8z"  horiz-adv-x="1024" />

    
    <glyph glyph-name="zhiding" unicode="&#60780;" d="M576 768a64 64 0 0 0 64-64v-384a64 64 0 0 0-64-64H192a64 64 0 0 0-64 64V704a64 64 0 0 0 64 64h384z m0-64H192v-384h384V704z m184.896-128h-49.792a7.072 7.072 0 0 1-7.104-7.104v-49.792c0-3.904 3.2-7.104 7.104-7.104h49.792c3.904 0 7.104 3.2 7.104 7.104V568.96a7.104 7.104 0 0 1-7.104 7.04z m128 0h-49.792a7.072 7.072 0 0 1-7.104-7.104v-49.792c0-3.904 3.2-7.104 7.104-7.104h49.792c3.904 0 7.104 3.2 7.104 7.104V568.96a7.104 7.104 0 0 1-7.104 7.04z m0-128h-49.792a7.072 7.072 0 0 1-7.104-7.104v-49.792c0-3.904 3.2-7.104 7.104-7.104h49.792c3.904 0 7.104 3.2 7.104 7.104V440.96a7.104 7.104 0 0 1-7.104 7.04z m0-128h-49.792a7.072 7.072 0 0 1-7.104-7.104v-49.792c0-3.904 3.2-7.104 7.104-7.104h49.792c3.904 0 7.104 3.2 7.104 7.104V312.96a7.104 7.104 0 0 1-7.104 7.04z m0-128h-49.792a7.072 7.072 0 0 1-7.104-7.104v-49.792c0-3.904 3.2-7.104 7.104-7.104h49.792c3.904 0 7.104 3.2 7.104 7.104v49.792a7.072 7.072 0 0 1-7.104 7.104z m0-128h-49.792a7.072 7.072 0 0 1-7.104-7.104v-49.792c0-3.904 3.2-7.104 7.104-7.104h49.792c3.904 0 7.104 3.2 7.104 7.104v49.792a7.072 7.072 0 0 1-7.104 7.104z m-128 0h-49.792a7.072 7.072 0 0 1-7.104-7.104v-49.792c0-3.904 3.2-7.104 7.104-7.104h49.792c3.904 0 7.104 3.2 7.104 7.104v49.792a7.072 7.072 0 0 1-7.104 7.104z m-128 0H583.04a7.072 7.072 0 0 1-7.104-7.104v-49.792c0-3.904 3.2-7.104 7.104-7.104h49.792c3.904 0 7.104 3.2 7.104 7.104v49.792a7.104 7.104 0 0 1-7.04 7.104z m-128 0H455.04a7.072 7.072 0 0 1-7.104-7.104v-49.792c0-3.904 3.2-7.104 7.104-7.104h49.792c3.904 0 7.104 3.2 7.104 7.104v49.792a7.104 7.104 0 0 1-7.04 7.104z m-128 0H327.04a7.072 7.072 0 0 1-7.104-7.104v-49.792c0-3.904 3.2-7.104 7.104-7.104h49.792c3.904 0 7.104 3.2 7.104 7.104v49.792a7.104 7.104 0 0 1-7.04 7.104z m0 128H327.04a7.072 7.072 0 0 1-7.104-7.104v-49.792c0-3.904 3.2-7.104 7.104-7.104h49.792c3.904 0 7.104 3.2 7.104 7.104v49.792a7.104 7.104 0 0 1-7.04 7.104z"  horiz-adv-x="1024" />

    
    <glyph glyph-name="YUAN1" unicode="&#60781;" d="M512 896C229.216 896 0 666.784 0 384s229.216-512 512-512 512 229.216 512 512S794.784 896 512 896z m0-937.184C277.184-41.184 86.816 149.184 86.816 384S277.184 809.184 512 809.184c234.816 0 425.184-190.368 425.184-425.184S746.816-41.184 512-41.184z m182.432 668.608h-68.032a8.992 8.992 0 0 1-8.032-4.992l-0.032-0.064-103.712-205.664h-3.872l-103.36 205.664a9.152 9.152 0 0 1-8.128 5.12h-69.408a8.704 8.704 0 0 1-4.32-1.248 9.248 9.248 0 0 1-3.648-12.48l-0.032 0.064 127.264-234.048h-70.144a9.152 9.152 0 0 1-9.152-9.152v-34.144c0-5.056 4.096-9.152 9.152-9.152h93.408v-47.328h-93.536a9.152 9.152 0 0 1-9.152-9.152v-34.144c0-5.056 4.096-9.152 9.152-9.152h93.408v-77.824c0-5.056 4.096-9.152 9.152-9.152h62.016a9.152 9.152 0 0 1 9.152 9.152v77.76h93.76a9.152 9.152 0 0 1 9.152 9.152v34.144a9.152 9.152 0 0 1-9.152 9.152H552.64v47.456h93.76a9.152 9.152 0 0 1 9.152 9.152v34.144a9.152 9.152 0 0 1-9.152 9.152h-70.944l127.04 234.048a9.472 9.472 0 0 1 1.088 4.384 9.344 9.344 0 0 1-9.216 9.056z"  horiz-adv-x="1024" />

    
    <glyph glyph-name="zuoduiqi" unicode="&#60782;" d="M64 832h64v-896H64z m832-256a64 64 0 0 0 64-64v-256a64 64 0 0 0-64-64H256a64 64 0 0 0-64 64v256a64 64 0 0 0 64 64h640z m0-64H256v-256h640v256z"  horiz-adv-x="1024" />

    
    <glyph glyph-name="YUAN1-copy" unicode="&#60783;" d="M512 689.536c-168.736 0-305.504-136.8-305.504-305.504s136.8-305.504 305.504-305.504c168.736 0 305.504 136.8 305.504 305.504S680.704 689.536 512 689.536z m0-559.264a253.76 253.76 0 0 0 0 507.456 253.76 253.76 0 0 0 0-507.456z m108.864 398.976h-40.576a5.376 5.376 0 0 1-4.8-2.976v-0.032L513.6 403.52h-2.304l-61.664 122.72a5.44 5.44 0 0 1-4.832 3.04h-41.408a5.024 5.024 0 0 1-2.56-0.736 5.536 5.536 0 0 1-2.176-7.424v0.032l75.936-139.68h-41.856a5.44 5.44 0 0 1-5.472-5.472v-20.384a5.44 5.44 0 0 1 5.472-5.472h55.744v-28.224h-55.808a5.44 5.44 0 0 1-5.472-5.472v-20.384a5.44 5.44 0 0 1 5.472-5.472h55.744v-46.432a5.44 5.44 0 0 1 5.472-5.472h37.024a5.44 5.44 0 0 1 5.472 5.472v46.4h55.968a5.44 5.44 0 0 1 5.472 5.472v20.384a5.44 5.44 0 0 1-5.472 5.472h-55.904v28.32h55.968a5.44 5.44 0 0 1 5.472 5.472v20.384a5.44 5.44 0 0 1-5.472 5.472H550.08l75.808 139.68a5.888 5.888 0 0 1 0.64 2.624 5.568 5.568 0 0 1-5.504 5.408z"  horiz-adv-x="1024" />

    
    <glyph glyph-name="wubiankuang" unicode="&#60784;" d="M165.344 48c5.856 0 10.656-4.8 10.656-10.688v-74.656c0-5.856-4.8-10.688-10.656-10.688H90.688a10.688 10.688 0 0 0-10.656 10.656v74.656c0 5.856 4.8 10.688 10.656 10.688z m191.968 0c5.888 0 10.688-4.8 10.688-10.688v-74.656c0-5.856-4.8-10.688-10.688-10.688H282.656a10.752 10.752 0 0 0-10.688 10.656v74.656c0 5.856 4.8 10.688 10.688 10.688z m192 0c5.856 0 10.688-4.8 10.688-10.688v-74.656c0-5.856-4.8-10.688-10.688-10.688h-74.656a10.752 10.752 0 0 0-10.688 10.656v74.656c0 5.856 4.8 10.688 10.688 10.688z m192 0c5.856 0 10.688-4.8 10.688-10.688v-74.656c0-5.856-4.8-10.688-10.688-10.688h-74.656a10.752 10.752 0 0 0-10.688 10.656v74.656c0 5.856 4.8 10.688 10.688 10.688z m192 0c5.856 0 10.688-4.8 10.688-10.688v-74.656c0-5.856-4.8-10.688-10.688-10.688h-74.656a10.752 10.752 0 0 0-10.688 10.656v74.656c0 5.856 4.8 10.688 10.688 10.688z m-384 192c5.856 0 10.688-4.8 10.688-10.688v-74.656c0-5.856-4.8-10.688-10.688-10.688h-74.656a10.752 10.752 0 0 0-10.688 10.656v74.656c0 5.856 4.8 10.688 10.688 10.688z m-383.968 0c5.856 0 10.656-4.8 10.656-10.688v-74.656c0-5.856-4.8-10.688-10.656-10.688H90.688a10.688 10.688 0 0 0-10.656 10.656v74.656c0 5.856 4.8 10.688 10.656 10.688z m767.968 0c5.856 0 10.688-4.8 10.688-10.688v-74.656c0-5.856-4.8-10.688-10.688-10.688h-74.656a10.752 10.752 0 0 0-10.688 10.656v74.656c0 5.856 4.8 10.688 10.688 10.688z m-767.968 192c5.856 0 10.656-4.8 10.656-10.688v-74.656c0-5.856-4.8-10.688-10.656-10.688H90.688a10.688 10.688 0 0 0-10.656 10.656v74.656c0 5.888 4.8 10.688 10.656 10.688z m191.968 0c5.888 0 10.688-4.8 10.688-10.688v-74.656c0-5.856-4.8-10.688-10.688-10.688H282.656a10.752 10.752 0 0 0-10.688 10.656v74.656c0 5.888 4.8 10.688 10.688 10.688z m192 0c5.856 0 10.688-4.8 10.688-10.688v-74.656c0-5.856-4.8-10.688-10.688-10.688h-74.656a10.752 10.752 0 0 0-10.688 10.656v74.656c0 5.888 4.8 10.688 10.688 10.688z m192 0c5.856 0 10.688-4.8 10.688-10.688v-74.656c0-5.856-4.8-10.688-10.688-10.688h-74.656a10.752 10.752 0 0 0-10.688 10.656v74.656c0 5.888 4.8 10.688 10.688 10.688z m192 0c5.856 0 10.688-4.8 10.688-10.688v-74.656c0-5.856-4.8-10.688-10.688-10.688h-74.656a10.752 10.752 0 0 0-10.688 10.656v74.656c0 5.888 4.8 10.688 10.688 10.688z m-767.968 192c5.856 0 10.656-4.8 10.656-10.688v-74.656c0-5.888-4.8-10.688-10.656-10.688H90.688a10.688 10.688 0 0 0-10.656 10.656V613.28c0 5.888 4.8 10.688 10.656 10.688z m767.968 0c5.856 0 10.688-4.8 10.688-10.688v-74.656c0-5.888-4.8-10.688-10.688-10.688h-74.656a10.752 10.752 0 0 0-10.688 10.656V613.28c0 5.888 4.8 10.688 10.688 10.688z m-384 0c5.856 0 10.688-4.8 10.688-10.688v-74.656c0-5.888-4.8-10.688-10.688-10.688h-74.656a10.752 10.752 0 0 0-10.688 10.656V613.28c0 5.888 4.8 10.688 10.688 10.688z m-383.968 192c5.856 0 10.656-4.8 10.656-10.656v-74.656c0-5.856-4.8-10.656-10.656-10.656H90.688a10.688 10.688 0 0 0-10.656 10.656V805.344c0 5.856 4.8 10.656 10.656 10.656z m767.968 0c5.856 0 10.688-4.8 10.688-10.656v-74.656c0-5.856-4.8-10.656-10.688-10.656h-74.656a10.752 10.752 0 0 0-10.688 10.656V805.344c0 5.856 4.8 10.656 10.688 10.656z m-576 0c5.888 0 10.688-4.8 10.688-10.656v-74.656c0-5.856-4.8-10.656-10.688-10.656H282.656a10.752 10.752 0 0 0-10.688 10.656V805.344c0 5.856 4.8 10.656 10.688 10.656z m192 0c5.856 0 10.688-4.8 10.688-10.656v-74.656c0-5.856-4.8-10.656-10.688-10.656h-74.656a10.752 10.752 0 0 0-10.688 10.656V805.344c0 5.856 4.8 10.656 10.688 10.656z m192 0c5.856 0 10.688-4.8 10.688-10.656v-74.656c0-5.856-4.8-10.656-10.688-10.656h-74.656a10.752 10.752 0 0 0-10.688 10.656V805.344c0 5.856 4.8 10.656 10.688 10.656z"  horiz-adv-x="1024" />

    
    <glyph glyph-name="zoom-in" unicode="&#60785;" d="M416 784a304 304 0 0 0 240.096-490.496l253.6-253.6a8 8 0 0 0 0-11.296l-42.304-42.304a8 8 0 0 0-11.296 0l-253.6 253.6A304 304 0 0 0 112 480 304 304 0 0 0 416 784zM254.816 318.784c43.008-43.104 100.288-66.784 161.184-66.784s118.208 23.712 161.184 66.784c43.104 43.008 66.784 100.288 66.784 161.184s-23.712 118.208-66.784 161.184C534.176 684.256 476.896 707.968 416 707.968s-118.208-23.712-161.184-66.816c-43.104-43.008-66.816-100.288-66.816-161.184s23.712-118.208 66.816-161.184z m127.2 195.2V600a8 8 0 0 0 8 8h52a8 8 0 0 0 8-8v-86.016h86.016a8 8 0 0 0 8-8v-52a8 8 0 0 0-8-8h-86.016v-86.016a8 8 0 0 0-8-8h-52a8 8 0 0 0-8 8v86.016H296a8 8 0 0 0-8 8v52a8 8 0 0 0 8 8h86.016z"  horiz-adv-x="1024" />

    
    <glyph glyph-name="sort-descending" unicode="&#60786;" d="M407.392 125.984H297.984V792a40 40 0 1 1-80 0v-666.016H108.576a12.608 12.608 0 0 1-9.504-20.992l144.704-164.096a18.944 18.944 0 0 1 28.48 0l144.608 164.096a12.832 12.832 0 0 1 3.2 8.384 12.704 12.704 0 0 1-12.704 12.608z m405.6 140.512a64.64 64.64 0 1 1-122.176 0L576.032-64h80.384l28.512 90.688h131.392L844.832-64h83.2l-115.008 330.496z m-111.296-181.184l48 153.216h1.792l48-153.216h-97.792z m-65.696 371.68h230.592a32.384 32.384 0 1 1 0 64.768h-162.208v1.792l188 254.688a32 32 0 0 1-24.384 52.704h-221.312a32.288 32.288 0 1 1 0-64.576h153.504v-2.112l-190.208-256.192 0.096-0.192a32 32 0 0 1 25.888-50.912z"  horiz-adv-x="1024" />

    
    <glyph glyph-name="xiangshang" unicode="&#60787;" d="M906.816 219.36l-64.96 0.544a42.4 42.4 0 0 0-29.792 12.512l-277.024 277.056a30.624 30.624 0 0 1-38.72 3.872l0.128 0.064-4.832-3.936-279.168-279.168a42.56 42.56 0 0 0-30.176-12.48h-1.024 0.064l-62.24 1.408a18.816 18.816 0 0 0-12.832 32.064L494.016 639.04a27.264 27.264 0 0 0 38.624 0l387.648-387.648a18.752 18.752 0 0 0-13.28-32.064h-0.192z"  horiz-adv-x="1024" />

    
    <glyph glyph-name="addnewnode1" unicode="&#60580;" d="M416.128 503.744l-247.808-0.064v-431.36h495.36v152.768a276.224 276.224 0 0 1 74.08 3.456l-1.696-0.256L736 72.32A72.32 72.32 0 0 0 663.68 0H168.32A72.32 72.32 0 0 0 96 72.32V503.68A72.32 72.32 0 0 0 168.32 576h259.648a271.776 271.776 0 0 1-11.84-72.256zM688 768a272 272 0 0 0 0-544 272 272 0 0 0 0 544z m25.984-144h-51.968-0.032a8 8 0 0 1-7.552-5.376l-0.032-0.064-0.384-2.56-0.064-85.952H568a8 8 0 0 1-7.584-5.44v-0.064l-0.384-2.56v-51.968c0-3.52 2.304-6.528 5.44-7.616l2.56-0.384h85.952v-86.016c0-3.52 2.368-6.528 5.504-7.616l2.56-0.384h52a8 8 0 0 1 7.552 5.376l0.032 0.064 0.384 2.56v86.016h86.048a8 8 0 0 1 7.552 5.376l0.032 0.064 0.384 2.56v51.968 0.032a8 8 0 0 1-5.376 7.552l-0.064 0.032-2.56 0.384-86.016 0.064V616v0.032a8 8 0 0 1-5.376 7.552l-0.064 0.032-2.56 0.384z"  horiz-adv-x="1024" />

    
    <glyph glyph-name="arrowright" unicode="&#60581;" d="M652.608 118.464l272.384 241.408a31.968 31.968 0 0 1 0.032 48.288l-0.032 0.032-272.384 243.2a7.936 7.936 0 0 1-13.184-5.952v-80.96c0-4.608 1.984-8.96 5.504-12.16l142.144-130.24H224a8 8 0 0 1-8-8v-60.032c0-4.416 3.584-8 8-8h563.072l-142.08-128.384a15.872 15.872 0 0 1-5.568-12.064v-81.056c0-6.784 8-10.496 13.184-6.016z"  horiz-adv-x="1152" />

    
    <glyph glyph-name="arrowleft" unicode="&#60582;" d="M499.392 118.464l-272.384 241.408a31.968 31.968 0 0 0-0.032 48.288l0.032 0.032 272.384 243.2a7.936 7.936 0 0 0 13.184-5.952v-80.96c0-4.608-1.984-8.96-5.504-12.16l-142.144-130.24H928c4.416 0 8-3.648 8-8v-60.032a8 8 0 0 0-8-8H364.928l142.08-128.384a15.872 15.872 0 0 0 5.568-12.064V124.48a7.936 7.936 0 0 0-13.184-5.952z"  horiz-adv-x="1152" />

    
    <glyph glyph-name="align-justify" unicode="&#60583;" d="M120 736h784q8 0 8-8v-80q0-8-8-8H120q-8 0-8 8v80q0 8 8 8z m0-405.344h784q8 0 8-8v-80q0-8-8-8H120q-8 0-8 8v80q0 8 8 8z m0-202.656h784q8 0 8-8v-80q0-8-8-8H120q-8 0-8 8v80q0 8 8 8z m0 405.344h784q8 0 8-8v-80q0-8-8-8H120q-8 0-8 8v80q0 8 8 8z"  horiz-adv-x="1024" />

    
    <glyph glyph-name="align-left" unicode="&#60584;" d="M120 736h496q8 0 8-8v-80q0-8-8-8H120q-8 0-8 8v80q0 8 8 8z m0-405.344h496q8 0 8-8v-80q0-8-8-8H120q-8 0-8 8v80q0 8 8 8z m0-202.656h784q8 0 8-8v-80q0-8-8-8H120q-8 0-8 8v80q0 8 8 8z m0 405.344h784q8 0 8-8v-80q0-8-8-8H120q-8 0-8 8v80q0 8 8 8z"  horiz-adv-x="1024" />

    
    <glyph glyph-name="abc" unicode="&#60585;" d="M364 462.336v-376.32a150.016 150.016 0 1 0-79.168 132.256l-0.8 0.384V695.936A40 40 0 0 0 317.216 735.36l548 95.008a40 40 0 0 0 46.816-39.424v-608.992a150.016 150.016 0 1 0-79.168 132.256l-0.8 0.384v228.8l-468-81.152z m0 81.184L832 624.672V743.456L364 662.336v-118.816zM214.016 15.968a70.048 70.048 0 0 1 0 140.032 69.984 69.984 0 1 1 0-139.968z m548 96a70.048 70.048 0 0 1 0 140.032 69.984 69.984 0 1 1 0-139.968z"  horiz-adv-x="1024" />

    
    <glyph glyph-name="align-center" unicode="&#60586;" d="M264 736h496q8 0 8-8v-80q0-8-8-8H264Q256 640 256 648v80Q256 736 264 736z m0-404.992h496q8 0 8-8v-80q0-8-8-8H264q-8 0-8 8v80q0 8 8 8zM120 128h784q8 0 8-8v-80q0-8-8-8H120q-8 0-8 8v80q0 8 8 8z m0 404.992h784q8 0 8-8v-80q0-8-8-8H120q-8 0-8 8v80q0 8 8 8z"  horiz-adv-x="1024" />

    
    <glyph glyph-name="arrowup" unicode="&#60587;" d="M841.536 460.608l-241.408 272.384a31.968 31.968 0 0 1-48.288 0.032l-0.032-0.032-243.2-272.384a7.936 7.936 0 0 1 5.952-13.184h80.96c4.608 0 8.96 1.984 12.16 5.504l130.24 142.144V32c0-4.416 3.584-8 8-8h60.032a8 8 0 0 1 8 8V595.072l128.384-142.08a15.872 15.872 0 0 1 12.064-5.568H835.52a7.936 7.936 0 0 1 5.952 13.184z"  horiz-adv-x="1152" />

    
    <glyph glyph-name="align-bottom" unicode="&#60588;" d="M902.912 96c5.056 0 9.088-4.544 9.088-10.112v-75.776c0-5.568-4.032-10.112-9.088-10.112H121.12c-5.056 0-9.088 4.544-9.088 10.112v75.776c0 5.568 4.032 10.112 9.088 10.112h781.792zM504.64 195.584l-130.656 165.6a9.312 9.312 0 0 0 7.36 15.072h86.208V758.656c0 5.152 4.192 9.344 9.344 9.344h69.984c5.12 0 9.344-4.192 9.344-9.344v-382.528h86.432c7.808 0 12.128-8.992 7.36-15.072l-130.656-165.472a9.28 9.28 0 0 0-14.688 0z"  horiz-adv-x="1024" />

    
    <glyph glyph-name="attachment" unicode="&#60589;" d="M779.296 699.36c-94.176 94.176-247.552 94.176-341.76 0l-260.96-260.864c-1.696-1.696-2.592-4-2.592-6.4s0.896-4.704 2.592-6.4l36.896-36.896a9.024 9.024 0 0 1 12.704 0l260.96 260.864c32.384 32.384 75.488 50.176 121.28 50.176s88.896-17.792 121.184-50.176a170.368 170.368 0 0 0 50.208-121.184 170.144 170.144 0 0 0-50.208-121.184l-309.056-309.024a103.36 103.36 0 0 0-146.08 0c-19.488 19.488-30.208 45.376-30.208 72.992s10.688 53.504 30.208 72.992l263.872 263.84c6.688 6.592 15.488 10.304 24.896 10.304h0.096c9.408 0 18.112-3.712 24.704-10.304a34.88 34.88 0 0 0 0-49.6l-215.68-215.552c-1.696-1.696-2.592-4-2.592-6.4s0.896-4.704 2.592-6.4l36.896-36.896a9.024 9.024 0 0 1 12.704 0l215.584 215.552c19.904 19.904 30.784 46.304 30.784 74.4s-11.008 54.592-30.784 74.4a105.536 105.536 0 0 1-148.992 0l-263.776-263.648a172.384 172.384 0 0 1-50.784-122.784 172.16 172.16 0 0 1 50.784-122.464c33.888-33.792 78.304-50.688 122.688-50.688s88.8 16.896 122.592 50.688l309.152 309.024a240 240 0 0 1 70.784 170.752 239.68 239.68 0 0 1-70.688 170.88z"  horiz-adv-x="1024" />

    
    <glyph glyph-name="beizhu2" unicode="&#60590;" d="M563.2 217.6c14.08 0 25.6-11.52 25.6-25.6v-12.8a25.6 25.6 0 0 0-25.6-25.6H230.4a25.6 25.6 0 0 0-25.6 25.6V192c0 14.08 11.52 25.6 25.6 25.6h332.8z m230.4 198.4c14.08 0 25.6-11.52 25.6-25.6v-12.8a25.6 25.6 0 0 0-25.6-25.6H230.4a25.6 25.6 0 0 0-25.6 25.6v12.8c0 14.08 11.52 25.6 25.6 25.6h563.2z m0 198.4c14.08 0 25.6-11.52 25.6-25.6v-12.8a25.6 25.6 0 0 0-25.6-25.6H230.4a25.6 25.6 0 0 0-25.6 25.6v12.8c0 14.08 11.52 25.6 25.6 25.6h563.2z"  horiz-adv-x="1024" />

    
    <glyph glyph-name="beizhu1" unicode="&#60591;" d="M373.632 115.2c19.84 0 35.968-20.032 35.968-44.8s-16.128-44.8-36.032-44.8H100.096c-19.904 0-36.032 20.032-36.032 44.8s16.128 44.8 36.032 44.8h273.6z m443.712 353.92l97.92-56.576-203.136-351.872-77.888-33.088a7.04 7.04 0 0 0-9.792 5.6v0.032l-10.24 83.968L817.28 469.12z m-276.928-59.52c19.648 0 35.584-18.624 35.584-41.6s-15.936-41.6-35.584-41.6H99.584C79.936 326.4 64 345.024 64 368s15.936 41.6 35.584 41.6h440.832z m348.16 140.672l60.992-35.328a21.248 21.248 0 0 0 7.68-29.024l0.064 0.096-21.12-36.736-97.664 56.512 21.12 36.736a21.152 21.152 0 0 0 29.024 7.68l-0.096 0.064zM797.696 704C816.64 704 832 685.376 832 662.4s-15.36-41.6-34.304-41.6H98.304C79.36 620.8 64 639.424 64 662.4S79.36 704 98.304 704h699.392z"  horiz-adv-x="1024" />

    
    <glyph glyph-name="calendar-arrow-right" unicode="&#60592;" d="M260.736 837.952l0.608-94.816c0.128-16.8 7.008-32 18.016-43.008l292.864-292.864a30.72 30.72 0 0 0 0-43.328L276.8 68.512a61.28 61.28 0 0 1-18.016-43.488v-1.12 0.064l1.632-91.84a30.72 30.72 0 0 1 52.448-21.184l445.632 445.632c7.424 7.424 12 17.664 12 28.992s-4.576 21.568-12 28.992L313.152 860a30.72 30.72 0 0 1-52.416-21.728v-0.288z"  horiz-adv-x="1024" />

    
    <glyph glyph-name="box" unicode="&#60593;" d="M120 736h784a8 8 0 0 0 8-8v-80a8 8 0 0 0-8-8H120a8 8 0 0 0-8 8v80A8 8 0 0 0 120 736zM160 576h704v-480a64 64 0 0 0-64-64H224a64 64 0 0 0-64 64V576z m256-104a8 8 0 0 1-8-8v-56c0-4.416 3.584-8 8-8h192a8 8 0 0 1 8 8V464a8 8 0 0 1-8 8h-192z"  horiz-adv-x="1024" />

    
    <glyph glyph-name="align-left1" unicode="&#60594;" d="M708.992 571.936h1.632a255.2 255.2 0 0 0 13.024-510.08l-0.608-0.032-14.048-0.384h-43.936l45.856-40.512-50.784-57.536-121.792 107.616a38.24 38.24 0 0 0-5.44 51.52l-0.064-0.096 4.896 5.6 121.792 112.224 52-56.448-49.632-45.632H709.6a178.496 178.496 0 0 1 12.224 356.576l-0.544 0.032-12.288 0.384h-143.968v76.704h143.968z m-274.4-445.344c1.696 0 3.072-3.84 3.072-8.448v-58.688c0-4.608-1.376-8.448-3.072-8.448H133.92c-1.696 0-3.072 3.84-3.072 8.448v58.688c0 4.608 1.376 8.448 3.072 8.448z m-1.6 222.368c2.624 0 4.768-3.84 4.768-8.448v-58.688c0-4.608-2.144-8.448-4.768-8.448H135.68c-2.688 0-4.832 3.84-4.832 8.448v58.752c0 4.608 2.144 8.352 4.832 8.352z m1.696 222.272c1.696 0 3.072-3.744 3.072-8.352v-58.752c0-4.608-1.376-8.352-3.072-8.352H133.92c-1.696 0-3.072 3.84-3.072 8.448v58.688c0 4.608 1.376 8.448 3.072 8.448zM956.96 793.6c7.136 0 13.024-3.84 13.024-8.448v-58.688c0-4.608-5.92-8.448-13.024-8.448H143.904c-7.2 0-13.024 3.84-13.024 8.448V785.152c0 4.608 5.824 8.448 13.024 8.448z"  horiz-adv-x="1120" />

    
    <glyph glyph-name="arrowdown" unicode="&#60595;" d="M841.536 307.392l-241.408-272.384a31.968 31.968 0 0 0-48.288-0.032l-0.032 0.032-243.2 272.384a7.936 7.936 0 0 0 5.952 13.184h80.96c4.608 0 8.96-1.984 12.16-5.504l130.24-142.144V736a8 8 0 0 0 8 8h60.032a8 8 0 0 0 8-8v-563.072l128.384 142.08a15.872 15.872 0 0 0 12.064 5.568h81.056a8 8 0 0 0 6.016-13.184z"  horiz-adv-x="1152" />

    
    <glyph glyph-name="beizhu" unicode="&#60596;" d="M160 0a32 32 0 0 0-32 32V736a32 32 0 0 0 32 32h704a32 32 0 0 0 32-32v-352a1052.512 1052.512 0 0 0-165.12-212.416l-0.064-0.064a1157.504 1157.504 0 0 0-213.792-168.64L512 0H160z m616.128 320H576v-199.04l4.992 3.84a1089.952 1089.952 0 0 1 93.44 81.088l11.072 10.944a1031.328 1031.328 0 0 1 80.832 90.624l9.728 12.544z m47.872 64V696H200v-624H512V352a32 32 0 0 0 32 32h280z"  horiz-adv-x="1024" />

    
    <glyph glyph-name="chart" unicode="&#60597;" d="M125.248 69.312V684.8H67.456v-673.28H968.32v57.728H125.248z m743.296 506.88h-118.848v-384h118.848v384zM621.696 704h-118.848v-512h118.848V704z m-246.848-255.808H256v-256h118.848v256z"  horiz-adv-x="1024" />

    
    <glyph glyph-name="bold" unicode="&#60598;" d="M328 449.984h224.672c57.056 0 103.328 44.448 103.328 99.264v9.44c0 54.816-46.272 99.264-103.328 99.264H328v-208z m369.824-35.424a209.92 209.92 0 0 0 94.176-175.072v-10.976c0-116.256-94.848-210.496-211.84-210.496H261.504a29.472 29.472 0 0 0-29.472 29.472V726.624c0 15.136 12.256 27.392 27.392 27.392h295.904c108.64 0 196.704-87.264 196.704-194.912v-10.176a193.312 193.312 0 0 0-54.176-134.336zM328 353.344v-238.656h251.136c63.776 0 115.488 51.008 115.488 113.92v10.848c0 62.912-51.712 113.92-115.488 113.92H328z"  horiz-adv-x="1024" />

    
    <glyph glyph-name="biaodan" unicode="&#60599;" d="M730.112 828.032a133.92 133.92 0 0 0 133.792-129.6v-0.224l0.128-4.096V451.808a40 40 0 0 0-79.936-2.144v0.096l-0.128 2.688v241.6 0.032c0 28.704-22.464 52.192-50.784 53.792h-0.128l-2.944 0.064H293.888h-0.032c-28.704 0-52.192-22.464-53.792-50.784v-0.128L240 694.08v-576.224c0-28.736 22.528-52.288 50.912-53.824l2.944-0.064h94.72a40 40 0 0 0 2.144-79.936h-0.096l-2.688-0.064h-94.08a133.92 133.92 0 0 0-133.792 129.568v0.224l-0.128 4.096V694.208a133.92 133.92 0 0 0 129.6 133.792h440.544z m188.864-504.32a40 40 0 0 0 1.888-54.496l0.032 0.064-1.984-2.112-255.424-255.424a40 40 0 0 0-54.496-1.888l0.064-0.032-2.112 1.92-145.792 145.792a40 40 0 0 0 54.56 58.464l-0.032 0.032 2.048-1.92 117.536-117.472 227.168 227.104a39.904 39.904 0 0 0 56.576 0z m-447.04 96.288a40 40 0 0 0 0-80h-80a40 40 0 0 0 0 80h80z m160 184a40 40 0 0 0 0-80h-239.904a40 40 0 0 0 0 80h239.968z"  horiz-adv-x="1024" />

    
    <glyph glyph-name="align-top" unicode="&#60600;" d="M902.912 672H121.12c-5.056 0-9.088 4.544-9.088 10.112V757.888c0 5.568 4.032 10.112 9.088 10.112h781.792c5.056 0 9.088-4.544 9.088-10.112v-75.776c0-5.568-4.032-10.112-9.088-10.112zM504.64 572.416a9.28 9.28 0 0 0 14.688 0l130.656-165.472a9.312 9.312 0 0 0-7.36-15.072h-86.432v-382.528a9.344 9.344 0 0 0-9.344-9.344h-69.984a9.376 9.376 0 0 0-9.344 9.344v382.4h-86.208a9.344 9.344 0 0 0-7.36 15.072l130.656 165.6z"  horiz-adv-x="1024" />

    
    <glyph glyph-name="align-middle" unicode="&#60601;" d="M902.912 421.984c5.056 0 9.088-4.544 9.088-10.112v-75.776c0-5.568-4.032-10.112-9.088-10.112H121.12c-5.056 0-9.088 4.544-9.088 10.112v75.776c0 5.568 4.032 10.112 9.088 10.112h781.792z m-385.056 74.88a7.392 7.392 0 0 0-11.712 0l-104.544 132.16a7.52 7.52 0 0 0 5.92 12.128h65.12V799.712a8.32 8.32 0 0 0 8.288 8.288h62.208a8.32 8.32 0 0 0 8.288-8.288v-158.656h65.024c6.336 0 9.76-7.264 5.92-12.128l-104.544-132.064z m0-245.728l104.544-132.16c3.84-4.864 0.32-12.128-5.92-12.128H551.36v-138.56a8.32 8.32 0 0 0-8.288-8.288h-62.208a8.32 8.32 0 0 0-8.288 8.288v138.56h-65.024a7.488 7.488 0 0 0-5.92 12.128l104.544 132.16a7.392 7.392 0 0 0 11.712 0z"  horiz-adv-x="1024" />

    
    <glyph glyph-name="biaoti" unicode="&#60602;" d="M952 104A8 8 0 0 0 960 96v-56a8 8 0 0 0-8-8H72a8 8 0 0 0-8 8V96a8 8 0 0 0 8 8h880z m0 316.032a8 8 0 0 0 8-8v-56.064a8 8 0 0 0-8-8H550.016a8 8 0 0 0-8 8v56c0 4.48 3.584 8 8 8H952z m0 315.968a8 8 0 0 0 8-8V672a8 8 0 0 0-8-8H72A8 8 0 0 0 64 672V728A8 8 0 0 0 72 736h880z m-542.016-172.032a32 32 0 0 0 32-32v-296a32 32 0 0 0-32-32H96a32 32 0 0 0-32 32v296.128a32 32 0 0 0 32 32h313.984z m-48-72H144a8 8 0 0 1-8-8v-200c0-4.416 3.584-7.936 8-7.936h217.984a8 8 0 0 1 8 7.936v200.064a8 8 0 0 1-8 8z"  horiz-adv-x="1024" />

    
    <glyph glyph-name="chuangkoushipei" unicode="&#60603;" d="M920 232a16 16 0 0 0 16-16v-224a32 32 0 0 0-32-32h-222.016a16 16 0 0 0-16 16v48a16 16 0 0 0 16 16h174.016v176a16 16 0 0 0 16 16z m-768 0a16 16 0 0 0 16-16v-176h174.016a16 16 0 0 0 16-16v-48a16 16 0 0 0-16-16H120a32 32 0 0 0-32 32v224a16 16 0 0 0 16 16zM672 576a32 32 0 0 0 32-32v-320a32 32 0 0 0-32-32H352a32 32 0 0 0-32 32V544a32 32 0 0 0 32 32h320z m-44.8-76.8h-230.4v-230.4h230.4v230.4z m-285.184 308.8a16 16 0 0 0 16-16v-48a16 16 0 0 0-16-16H168v-176a16 16 0 0 0-16-16h-48a16 16 0 0 0-16 16v224a32 32 0 0 0 32 32z m561.984 0a32 32 0 0 0 32-32v-224a16 16 0 0 0-16-16h-48a16 16 0 0 0-16 16v176h-174.016a16 16 0 0 0-16 16v48a16 16 0 0 0 16 16z"  horiz-adv-x="1024" />

    
    <glyph glyph-name="border-all" unicode="&#60604;" d="M874.24 777.76c17.44 0 31.488-14.048 31.488-31.488V21.76a31.424 31.424 0 0 0-31.488-31.488H149.728a31.488 31.488 0 0 0-31.488 31.488V746.272c0 17.44 14.048 31.488 31.488 31.488zM189.024 351.2l0.128-290.08 288.576-0.064c-0.576 9.184-0.96 19.584-1.12 30.72v8.928l-0.064 247.84H246.496c-22.784 0-43.328 1.024-57.44 2.656z m605.344-2.592l-8.928-0.064h-237.984v-247.84c0-14.528-0.384-28.128-1.12-39.648l288.576 0.064 0.096 289.28c-11.264-0.96-25.312-1.632-40.608-1.792zM480.608 706.976L189.12 706.88l-0.128-290.08a501.12 501.12 0 0 0 48.48 2.592l8.928 0.064 230.048 0.064 0.064 220.224c0 28.8 1.696 54.048 4.064 67.264z m354.272-0.096l-291.488 0.096c2.144-11.808 3.712-33.312 4-58.336l0.064-8.96v-220.224l237.984-0.064c18.848 0 36.096-0.672 49.504-1.856l-0.064 289.28z"  horiz-adv-x="1024" />

    
    <glyph glyph-name="clear" unicode="&#60605;" d="M416 60h192V216a8 8 0 0 0 8 8h48a8 8 0 0 0 8-8v-156h149.184L776.064 320H247.968l-45.12-260h149.184V216a8 8 0 0 0 8 8h48a8 8 0 0 0 8-8v-156z m-212 336h616v104h-272v208h-72v-208h-272v-104zM853.184 320l51.808-298.528a32 32 0 0 0-31.52-37.472H150.496a32 32 0 0 0-31.488 37.664l-0.032-0.192L170.784 320h-10.816a32 32 0 0 0-32 32v192a32 32 0 0 0 32 32h240V752a32 32 0 0 0 32 32h160a32 32 0 0 0 32-32V576h240a32 32 0 0 0 32-32v-192a32 32 0 0 0-32-32h-10.816z"  horiz-adv-x="1024" />

    
    <glyph glyph-name="bianzu" unicode="&#60606;" d="M304.832 345.6l0.896 0.064c2.848 0.096 5.408 0.256 7.936 0.48l-0.576-0.032 2.24 0.192 1.92 0.192 2.752 0.384 2.56 0.32 2.88 0.448 2.816 0.512 2.176 0.448 2.368 0.512 2.176 0.448 2.112 0.576 2.048 0.512V0H265.6V349.824l1.6-0.384 2.368-0.512 1.344-0.32 2.56-0.512 2.688-0.448 2.368-0.384 3.072-0.448 2.432-0.256 1.92-0.256 2.304-0.192 2.368-0.192 2.176-0.128 2.176-0.064 1.728-0.064h1.664l2.432-0.064h4.032zM339.2 768v-133.12c0.192 0-0.672 0.224-1.536 0.48l-1.024 0.224-2.24 0.576-2.432 0.512-2.944 0.64-2.304 0.384-2.56 0.448-2.688 0.448-3.008 0.384-2.56 0.256-2.816 0.256a768.576 768.576 0 0 1-3.68 0.256h-0.352l-1.664 0.128-2.56 0.064h-1.536L300.8 640h-3.2l-1.792-0.064-3.008-0.128-2.176-0.128-2.944-0.256-1.664-0.128-2.56-0.32-1.92-0.192-3.008-0.448-2.368-0.384-2.688-0.448-2.56-0.512-1.344-0.32-2.304-0.512-1.664-0.384V768h73.6z m422.4-634.88V0h-73.6v132.224a147.36 147.36 0 0 1 74.656 1.088l-1.024-0.256zM761.6 768v-350.72a147.52 147.52 0 0 1-74.624 0.672l1.024 0.224V768h73.6z m-38.4-345.6a147.2 147.2 0 1 0 0-294.4 147.2 147.2 0 1 0 0 294.4z m0-72.32a74.88 74.88 0 0 1 0-149.76 74.88 74.88 0 0 1 0 149.76zM300.8 640a147.2 147.2 0 0 0 0-294.4 147.2 147.2 0 0 0 0 294.4z m0-72.32a74.88 74.88 0 0 1 0-149.76 74.88 74.88 0 0 1 0 149.76z"  horiz-adv-x="1024" />

    
    <glyph glyph-name="collapse" unicode="&#60607;" d="M298.016 284A96.064 96.064 0 0 0 112.992 320a96 96 0 0 0 185.024 36H952a8 8 0 0 0 8-8v-56a8 8 0 0 0-8-8H520.288v-152c0-15.456 12.544-28 28-28H952A8 8 0 0 0 960 96v-56a8 8 0 0 0-8-8H548.288a100 100 0 0 0-100 100v152H298.016zM640 628V726.208a9.728 9.728 0 0 1-15.808 7.648l-172.448-136.192a9.728 9.728 0 0 1 0-15.328l172.448-136.192c6.336-5.12 15.808-0.48 15.808 7.648V552h264a8 8 0 0 1 8 8V620a8 8 0 0 1-8 8H640z"  horiz-adv-x="1024" />

    
    <glyph glyph-name="Column-width" unicode="&#60608;" d="M864 320a32 32 0 0 0 32-32v-256a32 32 0 0 0-32-32H160a32 32 0 0 0-32 32v256a32 32 0 0 0 32 32h704z m-40-72H200v-176h624v176zM192 768a8 8 0 0 0 8-8V640h80a8 8 0 0 0 8-8v-48a8 8 0 0 0-8-8h-80v-120A8 8 0 0 0 192 448H136a8 8 0 0 0-8 8v304A8 8 0 0 0 136 768H192z m696 0a8 8 0 0 0 8-8v-304a8 8 0 0 0-8-8H832a8 8 0 0 0-8 8V576h-80a8 8 0 0 0-8 8v48a8 8 0 0 0 8 8h80V760A8 8 0 0 0 832 768h56z m-480-128a8 8 0 0 0 8-8v-48a8 8 0 0 0-8-8h-48a8 8 0 0 0-8 8v48a8 8 0 0 0 8 8h48z m128 0a8 8 0 0 0 8-8v-48a8 8 0 0 0-8-8h-48a8 8 0 0 0-8 8v48a8 8 0 0 0 8 8h48z m128 0a8 8 0 0 0 8-8v-48a8 8 0 0 0-8-8h-48a8 8 0 0 0-8 8v48a8 8 0 0 0 8 8h48z"  horiz-adv-x="1024" />

    
    <glyph glyph-name="clock-circle" unicode="&#60609;" d="M512 832C264.608 832 64 631.392 64 384s200.608-448 448-448 448 200.608 448 448S759.392 832 512 832z m0-820C306.592 12 140 178.592 140 384S306.592 756 512 756 884 589.408 884 384 717.408 12 512 12z m174.688 245.408l-142.592 103.104V608a8.032 8.032 0 0 1-8 8H488A8.032 8.032 0 0 1 480 608v-275.392c0-2.592 1.184-4.992 3.296-6.496l165.408-120.608a8.096 8.096 0 0 1 11.2 1.696l28.608 39.008a8 8 0 0 1-1.792 11.2z"  horiz-adv-x="1024" />

    
    <glyph glyph-name="card" unicode="&#60610;" d="M719.808 576.32c-203.04 0-367.648-164.608-367.648-367.648 0-43.104 7.424-84.448 21.024-122.88h-276.8a31.968 31.968 0 0 0-31.968 31.968V752.128c0 17.664 14.304 31.968 31.968 31.968h703.328c17.664 0 31.968-14.304 31.968-31.968v-193.152a367.328 367.328 0 0 1-111.904 17.344z m47.936 143.84H128.384v-570.432h163.84c-2.56 17.664-4 38.08-4 58.848v0.096c0 238.368 193.216 431.584 431.584 431.584 16.096 0 32.128-0.896 47.968-2.624v82.56z m-47.936-207.776c167.712 0 303.712-136 303.712-303.712s-136-303.712-303.712-303.712-303.712 136-303.712 303.712 136 303.712 303.712 303.712z m0-63.936a239.776 239.776 0 1 1 0-479.584 239.776 239.776 0 0 1 0 479.584z m-31.968-207.808v95.904a8 8 0 0 0 8 8h47.968a8 8 0 0 0 8-8v-95.904h95.904a8 8 0 0 0 8-8v-47.968a8 8 0 0 0-8-8h-95.904v-95.904a8 8 0 0 0-8-8h-47.968a8 8 0 0 0-8 8v95.904h-95.904a8 8 0 0 0-8 8V232.64a8 8 0 0 0 8 8h95.904z"  horiz-adv-x="1024" />

    
    <glyph glyph-name="close" unicode="&#60611;" d="M563.808 384l262.496 312.896a7.936 7.936 0 0 1-6.112 13.088h-79.808a16.256 16.256 0 0 1-12.288-5.696l-216.512-258.112-216.512 258.112a16 16 0 0 1-12.288 5.696H202.976a7.936 7.936 0 0 1-6.112-13.088L459.36 384l-262.496-312.896a7.936 7.936 0 0 1 6.112-13.088h79.808a16.32 16.32 0 0 1 12.288 5.696l216.512 258.112 216.512-258.112a15.904 15.904 0 0 1 12.288-5.696h79.808a7.968 7.968 0 0 1 6.112 13.088L563.808 384z"  horiz-adv-x="1024" />

    
    <glyph glyph-name="calendar-arrow-left" unicode="&#60612;" d="M763.264 837.952l-0.608-94.816c-0.128-16.8-7.008-32-18.016-43.008l-292.864-292.864a30.72 30.72 0 0 1 0-43.328l295.424-295.424c11.136-11.136 18.048-26.496 18.048-43.488v-1.12 0.064l-1.632-91.84a30.72 30.72 0 0 0-52.448-21.184L265.536 356.576c-7.424 7.424-12 17.664-12 28.992s4.576 21.568 12 28.992l445.344 445.44a30.72 30.72 0 0 0 52.416-21.728v-0.288z"  horiz-adv-x="1024" />

    
    <glyph glyph-name="chuizhifenbu" unicode="&#60613;" d="M960 768v-64H64V768z m0-704v-64H64v64zM192 192a64 64 0 0 0-64 64v256a64 64 0 0 0 64 64h640a64 64 0 0 0 64-64v-256a64 64 0 0 0-64-64H192z m0 64h640v256H192v-256z"  horiz-adv-x="1024" />

    
    <glyph glyph-name="compact-display" unicode="&#60614;" d="M952 104H72A8 8 0 0 1 64 96v-56c0-4.416 3.584-8 8-8h880a8 8 0 0 1 8 8V96a8 8 0 0 1-8 8z m0 632H72a8 8 0 0 1-8-8V672c0-4.416 3.584-8 8-8h880A8 8 0 0 1 960 672V728a8 8 0 0 1-8 8zM848 235.968a16 16 0 0 1 16 16v264.128a16 16 0 0 1-16 16h-672a16 16 0 0 1-16-16v-264a16 16 0 0 1 16-16h672z m-616 224h560v-152H232v152.064z"  horiz-adv-x="1024" />

    
    <glyph glyph-name="clip" unicode="&#60615;" d="M891.68 348.832H322.144a35.168 35.168 0 1 0 0 70.336h569.536v267.2a35.168 35.168 0 1 0 70.336 0v-604.672a35.168 35.168 0 1 0-70.336 0v267.2zM97.152 721.504c19.424 0 35.168-15.744 35.168-35.168v-604.704a35.168 35.168 0 1 0-70.336 0V686.304c0 19.424 15.744 35.168 35.168 35.168z"  horiz-adv-x="1024" />

    
    <glyph glyph-name="danhangwenben1" unicode="&#60616;" d="M804.576 841.152a164.608 164.608 0 0 0 164.576-164.576v-585.152a164.608 164.608 0 0 0-164.576-164.576H219.424a164.608 164.608 0 0 0-164.576 164.576V676.576a164.608 164.608 0 0 0 164.576 164.576h585.152z m0-109.728H219.424h-0.032c-29.152 0-53.024-22.752-54.752-51.488v-0.16l-0.064-3.232v-585.152c0-29.248 22.816-53.088 51.648-54.784l3.232-0.064H804.64c29.152 0 53.024 22.752 54.752 51.488v0.16l0.064 3.232V676.576v0.032c0 29.152-22.752 53.024-51.488 54.752h-0.16l-3.232 0.064z m-109.728-146.272a54.848 54.848 0 0 0 0-109.696h-128v-274.272a54.848 54.848 0 1 0-109.696 0v274.272h-128a54.848 54.848 0 0 0 0 109.696h365.728z"  horiz-adv-x="1024" />

    
    <glyph glyph-name="danxuan1" unicode="&#60617;" d="M512 859.424c262.56 0 475.424-212.864 475.424-475.424S774.56-91.424 512-91.424C249.44-91.424 36.576 121.44 36.576 384S249.44 859.424 512 859.424z m0-109.696C310.016 749.728 146.272 585.984 146.272 384S310.016 18.272 512 18.272 877.728 182.016 877.728 384 713.984 749.728 512 749.728z m175.392-310.88a18.272 18.272 0 0 0 12.928-31.136l-174.432-175.328a18.144 18.144 0 0 0-24.16-1.504l0.032-0.032-1.696 1.472-176.064 175.328a18.24 18.24 0 0 0 12.864 31.232h350.56z"  horiz-adv-x="1024" />

    
    <glyph glyph-name="code-example" unicode="&#60618;" d="M516 223.008c0-4.384 3.392-8 7.488-8h184.992c4.096 0 7.488 3.616 7.488 8v48c0 4.384-3.392 8-7.488 8h-184.992c-4.096 0-7.488-3.616-7.488-8v-48z m-194.912-6.112l192 160.992a8.032 8.032 0 0 1 0 12.288l-192 160.896a7.936 7.936 0 0 1-13.088-6.112v-62.688c0-2.4 0.992-4.608 2.912-6.112l109.792-92.192-109.792-92.192a8.16 8.16 0 0 1-2.912-6.112v-62.688c0-6.784 7.904-10.496 13.088-6.112zM880 784h-736a32 32 0 0 1-32-32v-736a32 32 0 0 1 32-32h736a32 32 0 0 1 32 32v736a32 32 0 0 1-32 32z m-40-728H184V712h656v-656z"  horiz-adv-x="1024" />

    
    <glyph glyph-name="border-style" unicode="&#60619;" d="M968.704 805.408H146.336c-4.864 0-8.832-5.216-8.832-11.648v-81.728c0-6.432 3.968-11.648 8.832-11.648h822.368c4.864 0 8.832 5.216 8.832 11.648V793.76c0 6.368-3.968 11.648-8.832 11.648zM209.504 55.424H146.496c-4.928 0-8.928-4.512-8.928-10.016v-69.952c0-5.504 4.032-10.016 8.992-10.016h62.944c4.928 0 8.992 4.512 8.992 10.016v69.952c0 5.504-4.096 10.016-8.992 10.016z m753.12 375.008h-209.824c-4.448 0-8.096-5.28-8.096-11.648v-81.728c0-6.432 3.648-11.648 8.096-11.648h209.824c4.448 0 8.032 5.28 8.032 11.648v81.728c0 6.368-3.616 11.648-8.032 11.648z m-303.584 0h-209.824c-4.512 0-8.096-5.28-8.096-11.648v-81.728c0-6.432 3.616-11.648 8.096-11.648h209.696c4.448 0 8.096 5.28 8.096 11.648v81.728c0 6.368-3.648 11.648-8.096 11.648z m-303.616 0H145.6c-4.448 0-8.096-5.28-8.096-11.648v-81.728c0-6.432 3.584-11.648 8.096-11.648h209.696c4.448 0 8.096 5.28 8.096 11.648v81.728c0 6.368-3.616 11.648-8.096 11.648z m39.616-375.008h-63.008c-4.928 0-8.992-4.512-8.992-10.016v-69.952c0-5.504 4.064-10.016 8.992-10.016h63.008c4.928 0 8.992 4.512 8.992 10.016v69.952c0 5.504-4.064 10.016-8.992 10.016z m371.104 0h-63.008c-4.928 0-8.992-4.512-8.992-10.016v-69.952c0-5.504 4.096-10.016 8.992-10.016h63.008c4.928 0 8.992 4.512 8.992 10.016v69.952c0 5.504-4.096 10.016-8.992 10.016z m185.504 0H888.64c-4.928 0-8.992-4.512-8.992-10.016v-69.952c0-5.504 4.096-10.016 8.992-10.016h63.008c4.928 0 8.992 4.512 8.992 10.016v69.952c0 5.504-4.096 10.016-8.992 10.016z m-371.104 0h-63.008c-4.928 0-8.992-4.512-8.992-10.016v-69.952c0-5.504 4.096-10.016 8.992-10.016h63.008c4.928 0 8.992 4.512 8.992 10.016v69.952c0 5.504-4.096 10.016-8.992 10.016z"  horiz-adv-x="1120" />

    
    <glyph glyph-name="check-square-o" unicode="&#60620;" d="M188 708v-648h648V708H188zM144 784h736a32 32 0 0 0 32-32v-736a32 32 0 0 0-32-32h-736a32 32 0 0 0-32 32v736a32 32 0 0 0 32 32z m472.224-254.272l-157.216-218.016-71.232 98.784a31.872 31.872 0 0 1-25.856 13.248H315.008a8 8 0 0 1-6.464-12.704l124.608-172.8a31.84 31.84 0 0 1 51.744 0l210.592 292.032a8 8 0 0 1-6.464 12.704h-46.912a31.744 31.744 0 0 1-25.792-13.184l-0.064-0.096"  horiz-adv-x="1024" />

    
    <glyph glyph-name="copy" unicode="&#60621;" d="M236 194.016h140c23.2 0 42.016-18.816 42.016-42.016v-140h242.016V628H236.032v-433.984z m33.472-68l80.512-80.512v80.512H269.472zM832 832a32 32 0 0 0 32-32v-728c0-4.384-3.616-8-8-8H800a8.032 8.032 0 0 0-8 8V760H296A8 8 0 0 0 288 768V824A8 8 0 0 0 296 832H832z m-128-128a32 32 0 0 0 32-32v-704a32 32 0 0 0-32-32H365.248a31.904 31.904 0 0 0-22.624 9.376l-173.248 173.248A31.904 31.904 0 0 0 160 141.248V672a32 32 0 0 0 32 32h512z"  horiz-adv-x="1024" />

    
    <glyph glyph-name="chuizhijuzhongduiqi" unicode="&#60622;" d="M576 256v-320h-64V256h64z m0 576v-320h-64V832h64z m288-256a64 64 0 0 0 64-64v-256a64 64 0 0 0-64-64H224a64 64 0 0 0-64 64v256a64 64 0 0 0 64 64h640z m0-64H224v-256h640v256z"  horiz-adv-x="1088" />

    
    <glyph glyph-name="datasheet" unicode="&#60623;" d="M466.432 757.76a99.552 99.552 0 0 0 91.136 0l324.736-166.272a52 52 0 0 0-2.624-93.888l-0.32-0.128-85.12-36.928 88.064-45.056c23.424-12.032 33.92-39.36 25.344-63.488l-2.752-6.528a52.48 52.48 0 0 0-18.976-20.544l-0.224-0.128-6.4-3.328-84.992-36.928 88-45.056c23.424-12.032 33.92-39.36 25.344-63.488l-2.752-6.528a52.48 52.48 0 0 0-18.976-20.544l-0.224-0.128-6.4-3.328-327.424-142.464a100.256 100.256 0 0 0-70.08-3.648l-9.664 3.648L144.64 145.472a51.904 51.904 0 1 0-9.248 90.112l0.16 0.096 6.144 3.776 87.936 45.056-84.992 36.928a51.904 51.904 0 1 0-9.248 90.112l0.16 0.096 6.144 3.776 87.936 45.056-84.992 36.928a52.16 52.16 0 0 0-29.248 62.144l-0.096-0.352 2.368 6.72c4.928 11.136 13.28 19.968 23.712 25.408l0.288 0.128z m242.432-510.4l-156.992-68.352a100.256 100.256 0 0 0-70.08-3.648l-9.664 3.648-157.056 68.352-102.976-52.736 288.704-125.568a27.584 27.584 0 0 1 14.88-2.112h-0.128l4.928 1.088 2.752 1.024 288.64 125.568-103.04 52.736z m0 176l-156.992-68.352a99.872 99.872 0 0 0-79.744 0L315.072 423.36l-102.976-52.736 288.704-125.568a27.584 27.584 0 0 1 14.88-2.112h-0.128l4.928 1.088 2.752 1.024 288.64 125.568-103.04 52.736z m-184.128 270.336a27.84 27.84 0 0 1-25.632-0.064l0.16 0.064-287.168-147.008 288.704-125.632a27.584 27.584 0 0 1 19.84-0.96l-0.192-0.064 2.752 1.024 288.64 125.632z"  horiz-adv-x="1024" />

    
    <glyph glyph-name="calendar" unicode="&#60624;" d="M932.576 758.848h-206.624V832a9.152 9.152 0 0 1-9.152 9.152h-34.752a9.152 9.152 0 0 1-9.152-9.152v-73.152H351.072V832a9.152 9.152 0 0 1-9.152 9.152H307.168A9.152 9.152 0 0 1 298.016 832v-73.152H91.392c-20.192 0-36.576-16.384-36.576-36.576v-758.848c0-20.192 16.384-36.576 36.576-36.576h841.152c20.192 0 36.576 16.384 36.576 36.576V722.272c0 20.192-16.384 36.576-36.576 36.576zM908.8-12.8H115.2V443.456h793.6V-12.8z m-793.6 512V698.528h182.848v-76.8c0-5.056 4.096-9.152 9.152-9.152h34.752a9.152 9.152 0 0 1 9.152 9.152v76.8h321.824v-76.8c0-5.056 4.096-9.152 9.152-9.152h34.752a9.152 9.152 0 0 1 9.152 9.152v76.8h182.848V499.2h-793.6z"  horiz-adv-x="1024" />

    
    <glyph glyph-name="code" unicode="&#60625;" d="M553.376 732.352l62.592-13.312q7.84-1.664 6.176-9.472l-142.208-669.056q-1.664-7.84-9.472-6.176l-62.592 13.312q-7.84 1.664-6.176 9.504l142.208 669.056q1.664 7.84 9.472 6.176z m158.624-170.752v-81.312c0-2.56 1.184-4.832 3.04-6.272h0.032l114.976-89.984-114.976-89.984a7.936 7.936 0 0 1-3.072-6.304v-81.312a8 8 0 0 1 12.96-6.272h-0.032l218.976 171.296a16 16 0 0 1 0.032 25.184l-0.032 0.032-218.976 171.296a8 8 0 0 1-12.928-6.304z m-400 0v-81.312c0-2.56-1.184-4.832-3.04-6.272h-0.032L193.92 384.032l115.008-89.984a7.936 7.936 0 0 0 3.072-6.304v-81.312a8 8 0 0 0-12.96-6.272h0.032l-218.976 171.296a16 16 0 0 0-0.032 25.184l0.032 0.032 218.976 171.296a8 8 0 0 0 12.928-6.304z"  horiz-adv-x="1024" />

    
    <glyph glyph-name="collapsenode" unicode="&#60626;" d="M844.8 563.2a179.2 179.2 0 1 0 0-358.4H435.2a179.36 179.36 0 0 0-175.36 141.984l-0.192 1.184H172.992v72.064h86.656c17.344 82.272 89.344 143.136 175.552 143.168h409.6zM640 441.6a57.6 57.6 0 0 1 0-115.2 57.6 57.6 0 0 1 0 115.2z m-192 0a57.6 57.6 0 0 1 0-115.2 57.6 57.6 0 0 1 0 115.2z m384 0a57.6 57.6 0 0 1 0-115.2 57.6 57.6 0 0 1 0 115.2zM0 384a96 96 0 1 1 192 0 96 96 0 1 1-192 0z"  horiz-adv-x="1024" />

    
    <glyph glyph-name="diduiqi" unicode="&#60627;" d="M64-64v64h896v-64z m256 832a64 64 0 0 0 64 64h256a64 64 0 0 0 64-64v-640a64 64 0 0 0-64-64h-256a64 64 0 0 0-64 64V768z m64 0v-640h256V768h-256z"  horiz-adv-x="1024" />

    
    <glyph glyph-name="drag" unicode="&#60628;" d="M232 746.24a85.76 85.76 0 1 0 171.52 0 85.76 85.76 0 0 0-171.52 0z m0-362.24a85.76 85.76 0 1 0 171.52 0 85.76 85.76 0 0 0-171.52 0z m0-362.24a85.76 85.76 0 1 0 171.52 0 85.76 85.76 0 0 0-171.52 0zM620.512 746.24a85.76 85.76 0 1 0 171.52 0 85.76 85.76 0 0 0-171.52 0z m0-362.24a85.76 85.76 0 1 0 171.52 0 85.76 85.76 0 0 0-171.52 0z m0-362.24a85.76 85.76 0 1 0 171.52 0 85.76 85.76 0 0 0-171.52 0z"  horiz-adv-x="1024" />

    
    <glyph glyph-name="chuangjianshijian" unicode="&#60629;" d="M376 795.968c10.368 0 18.88-7.872 19.84-17.92l0.192-2.048v-52.032h232V776c0 9.6 6.848 17.728 16 19.584l1.92 0.32 2.048 0.128H704c10.368 0 18.88-7.936 19.84-17.984l0.128-2.048v-52.032H880c22.464 0 40.96-16.768 43.648-38.528l0.256-2.752 0.128-2.688-0.128-256.128h-96l0.128 0.128H195.968v-356.032l276.16 0.128v-96L144-28.032c-23.36 0-42.464 18.208-43.872 41.216v0.128l-0.128 2.688V680c0 23.424 18.304 42.56 41.344 43.904l2.688 0.128h156.032V776c0 9.6 6.848 17.728 16 19.584l1.92 0.32 2.048 0.128h56z m-76.032-168H196.032v-112h632.064v112h-104.064V592a20.064 20.064 0 0 0-17.824-19.84h-0.096l-2.112-0.256h-56a20.032 20.032 0 0 0-19.84 17.888v0.096l-0.128 2.048V627.968h-232.064v-36.032a20.064 20.064 0 0 0-17.824-19.84h-0.096l-2.048-0.192H320a20.032 20.032 0 0 0-19.84 17.888v0.096l-0.192 2.048V627.968zM720 368A48 48 0 0 0 768 320v-96h96a48 48 0 0 0 0-96h-96v-96a48 48 0 0 0-96 0v96h-96a48 48 0 0 0 0 96h96v96a48 48 0 0 0 48 48z"  horiz-adv-x="1024" />

    
    <glyph glyph-name="DropdownButton" unicode="&#60630;" d="M469.6 579.648l317.184-384.768a33.376 33.376 0 0 1 49.824-0.032l0.032 0.032 318.592 384.768a33.44 33.44 0 0 1-24.864 55.68H494.656c-28.992 0-44.32-34.144-25.088-55.68z"  horiz-adv-x="1632" />

    
    <glyph glyph-name="download1" unicode="&#60631;" d="M505.696 235.008a8 8 0 0 1 12.608 0l112 141.696a8 8 0 0 1-6.304 12.896h-74.112V728a8 8 0 0 1-8 8h-60a8 8 0 0 1-8-8v-338.304H400a8 8 0 0 1-6.304-12.896l112-141.792z m372.32 34.976h-60a8.032 8.032 0 0 1-8-8v-154.016H214.016v154.016a8 8 0 0 1-8 8H146.016a8 8 0 0 1-8-8v-198.016a32 32 0 0 1 32-32h684a32 32 0 0 1 32 32v198.016a8.032 8.032 0 0 1-8 8z"  horiz-adv-x="1024" />

    
    <glyph glyph-name="dot" unicode="&#60632;" d="M432.896 700.416a79.104 79.104 0 0 1 158.208 0 79.104 79.104 0 0 1-158.208 0z m0-316.416a79.104 79.104 0 0 1 158.208 0 79.104 79.104 0 0 1-158.208 0z m0-316.416a79.104 79.104 0 0 1 158.208 0 79.104 79.104 0 0 1-158.208 0z"  horiz-adv-x="1024" />

    
    <glyph glyph-name="cut" unicode="&#60633;" d="M891.264 70.368a16 16 0 0 0-11.264-27.36h-90.592-0.032a15.936 15.936 0 0 0-11.232 4.64l-267.648 268.32-80.32-80.608A160.064 160.064 0 0 0 288 1.984c-88.32 0-160 71.68-160 160a160.064 160.064 0 0 0 234.496 141.632L442.688 384l-80.096 80.384a160.064 160.064 0 0 0-234.496 141.632c0 88.32 71.68 160 160 160a160.064 160.064 0 0 0 142.176-233.376l80.32-80.608 267.552 268.256a15.712 15.712 0 0 0 11.328 4.736h90.496c14.24 0 21.28-17.344 11.264-27.36L578.368 384l312.864-313.632zM288 525.984c44.096 0 80 35.904 80 80s-35.904 80-80 80-80-35.904-80-80 35.904-80 80-80z m0-444c44.096 0 80 35.904 80 80s-35.904 80-80 80-80-35.904-80-80 35.904-80 80-80z"  horiz-adv-x="1024" />

    
    <glyph glyph-name="duoxuan3" unicode="&#60634;" d="M605.12 171.52c28.096 0 50.88-21.504 50.88-48s-22.784-48-50.88-48H146.88c-28.096 0-50.88 21.504-50.88 48s22.784 48 50.88 48h458.24z m298.048 20.48c13.696 0 24.832-10.56 24.832-23.552 0-5.504-2.048-10.88-5.76-15.04l-71.168-80.96a25.728 25.728 0 0 0-38.112 0l-0.032 0.032-71.168 80.96a22.656 22.656 0 0 0 3.168 33.12l0.064 0.032a25.536 25.536 0 0 0 15.808 5.44h142.4z m-298.048 235.52c28.096 0 50.88-21.504 50.88-48s-22.784-48-50.88-48H146.88c-28.096 0-50.88 21.504-50.88 48s22.784 48 50.88 48h458.24z m298.048 20.48c13.696 0 24.832-10.56 24.832-23.552 0-5.504-2.048-10.88-5.76-15.04l-71.168-80.96a25.728 25.728 0 0 0-38.112 0l-0.032 0.032-71.168 80.96a22.656 22.656 0 0 0 3.168 33.12l0.064 0.032a25.536 25.536 0 0 0 15.808 5.44h142.4zM605.12 683.52c28.096 0 50.88-21.504 50.88-48s-22.784-48-50.88-48H146.88C118.784 587.52 96 609.024 96 635.52s22.784 48 50.88 48h458.24zM903.168 704c13.696 0 24.832-10.56 24.832-23.552 0-5.504-2.048-10.88-5.76-15.04l-71.168-80.96a25.728 25.728 0 0 0-38.112 0l-0.032 0.032-71.168 80.96a22.656 22.656 0 0 0 3.168 33.12l0.064 0.032a25.536 25.536 0 0 0 15.808 5.44h142.4z"  horiz-adv-x="1024" />

    
    <glyph glyph-name="down" unicode="&#60635;" d="M884 640h-75.008a16.096 16.096 0 0 1-12.896-6.592L512 241.792 227.904 633.408A16.096 16.096 0 0 1 215.008 640H140c-6.496 0-10.304-7.392-6.496-12.704l352.608-486.112c12.8-17.6 39.008-17.6 51.712 0L890.432 627.296a7.968 7.968 0 0 1-6.4 12.704z"  horiz-adv-x="1024" />

    
    <glyph glyph-name="duohangwenben" unicode="&#60636;" d="M864 128a48 48 0 0 0 0-96H160a48 48 0 0 0 0 96h704zM480 720a48 48 0 0 0 0-96h-112v-384a48 48 0 0 0-96 0v384H160a48 48 0 0 0 0 96h320zM864 320a48 48 0 0 0 0-96H512a48 48 0 0 0 0 96h352z m0 192a48 48 0 0 0 0-96h-288a48 48 0 0 0 0 96h288z m0 192a48 48 0 0 0 0-96h-208a48 48 0 0 0 0 96H864z"  horiz-adv-x="1024" />

    
    <glyph glyph-name="drag-circle" unicode="&#60637;" d="M512-64C264.576-64 64 136.576 64 384S264.576 832 512 832s448-200.576 448-448-200.576-448-448-448zM296 512a8 8 0 0 1-8-8v-48c0-4.416 3.584-8 8-8h432a8 8 0 0 1 8 8v48a8 8 0 0 1-8 8H296z m0-192a8 8 0 0 1-8-8v-48c0-4.416 3.584-8 8-8h432a8 8 0 0 1 8 8v48a8 8 0 0 1-8 8H296z"  horiz-adv-x="1024" />

    
    <glyph glyph-name="embedded-preview" unicode="&#60638;" d="M952 736H72a8 8 0 0 1-8-8V672c0-4.416 3.584-8 8-8h880A8 8 0 0 1 960 672V728a8 8 0 0 1-8 8zM848 32a16 16 0 0 1 16 16V516.096a16 16 0 0 1-16 16h-672a16 16 0 0 1-16-16v-467.968a16 16 0 0 1 16-16h672zM232 460.096h560v-355.968H232V460.032z"  horiz-adv-x="1024" />

    
    <glyph glyph-name="curve1" unicode="&#60639;" d="M192 704c281.408-0.032 513.504-211.232 546.432-483.776l0.256-2.624h110.08c13.12 0 20.096-14.528 11.328-23.68l-145.088-163.584a16 16 0 0 0-22.72 0l-144.384 163.584c-8.768 9.152-1.792 23.68 11.392 23.68h102.016C629.376 444.896 440 619.008 208.416 626.912l-0.8 0.032L192 627.2V704z"  horiz-adv-x="1024" />

    
    <glyph glyph-name="command" unicode="&#60640;" d="M447.232 323.008h129.536V452.48h-129.536v-129.472z m0-64.768v-74.368c0-37.312-13.44-69.312-40.448-96a133.12 133.12 0 0 0-95.328-40.064h-2.112 0.096c-37.888 0-70.272 13.44-97.152 40.256a132.448 132.448 0 0 0-40.288 95.296l0.032 2.368v-0.128c0 37.376 13.44 69.568 40.32 96.704 26.816 27.136 58.752 40.704 95.744 40.704h74.432V452.48H306.848a129.792 129.792 0 0 0-94.496 40.64l-0.064 0.064a132.832 132.832 0 0 0-40.256 95.456V590.4v-0.096c0 37.888 13.44 70.272 40.32 97.088 26.816 26.88 59.2 40.32 97.088 40.32s70.4-13.44 97.344-40.064c27.008-26.688 40.448-58.752 40.448-96v-74.432h129.536V591.584c0 37.312 13.44 69.376 40.448 96a133.12 133.12 0 0 0 95.328 40.064h2.112-0.096c38.208 0 70.656-13.44 97.344-40.256 26.688-26.88 40.064-59.2 40.064-97.088 0-37.632-13.376-70.016-40.064-97.152a129.632 129.632 0 0 0-94.464-40.704h-1.632 0.096-74.432v-129.472h75.968a129.6 129.6 0 0 0 94.4-40.64l0.064-0.064c26.688-27.136 40.064-59.328 40.064-96.64 0-38.272-13.376-70.784-40.064-97.6-26.688-26.88-59.136-40.256-97.344-40.256-37.888 0-70.4 13.376-97.344 40.064a129.92 129.92 0 0 0-40.448 94.368v1.696-0.096 74.368h-129.536z m-64.704 259.008V590.336a69.76 69.76 0 0 1-21.44 51.392 70.496 70.496 0 0 1-50.496 21.184h-1.216 0.064c-19.84 0-36.928-7.04-51.2-21.184-13.216-12.704-21.44-30.528-21.44-50.272v-1.184 0.064a70.4 70.4 0 0 1 21.44-51.648c12.8-13.248 30.752-21.44 50.592-21.44h1.12-0.064 72.64z m0-259.008H308.832c-19.84 0-37.792-8.224-50.592-21.44l-0.032-0.032c-14.272-14.272-21.44-31.36-21.44-51.2a70.4 70.4 0 0 1 21.44-51.584c12.8-13.248 30.752-21.44 50.592-21.44h1.12-0.064a69.76 69.76 0 0 1 51.2 21.44c14.272 14.272 21.44 31.36 21.44 51.2v73.024z m258.944 259.008h73.088c19.84 0 36.928 7.168 51.2 21.44 13.248 12.8 21.44 30.752 21.44 50.592V590.4v-0.064c0 20.096-7.04 37.248-21.248 51.392a69.792 69.792 0 0 1-50.176 21.184h-1.28 0.064c-20.096 0-37.312-7.04-51.648-21.184-13.216-12.704-21.44-30.528-21.44-50.272v-1.184 0.064-73.088z m0-259.008v-73.024c0-19.84 7.168-36.928 21.44-51.2 12.832-13.248 30.752-21.44 50.592-21.44h1.12-0.064c20.096 0 37.248 7.104 51.392 21.44A70.72 70.72 0 0 1 787.2 185.6c0 19.84-7.168 36.928-21.44 51.2a69.76 69.76 0 0 1-50.368 21.44h-73.92z"  horiz-adv-x="1024" />

    
    <glyph glyph-name="filter1" unicode="&#60641;" d="M857.088 742.016H166.912c-22.976 0-37.312-26.688-25.792-48l218.048-395.392 0.128-149.312c0-17.728 11.392-23.424 29.44-31.488l246.272-100.16c16.512 0 29.824 14.272 29.824 32v248.96l218.112 395.392c11.52 21.312-2.88 48-25.856 48z"  horiz-adv-x="1024" />

    
    <glyph glyph-name="deleterow" unicode="&#60642;" d="M120 464h448q8 0 8-8v-144q0-8-8-8h-448q-8 0-8 8v144q0 8 8 8zM384 708H136a8 8 0 0 0-8 8V776a8 8 0 0 0 8 8h292a32 32 0 0 0 32-32V544a8 8 0 0 0-8-8H392A8 8 0 0 0 384 544V708z m0-648H136a8 8 0 0 1-8-8v-60c0-4.416 3.584-8 8-8h292a32 32 0 0 1 32 32V224a8 8 0 0 1-8 8H392A8 8 0 0 1 384 224v-164z m398.016 369.344l73.12 87.776a8 8 0 0 0 6.144 2.88h54.72a8 8 0 0 0 6.144-13.12L819.776 384l102.368-122.88a8 8 0 0 0-6.144-13.12h-54.72a8 8 0 0 0-6.144 2.88l-73.12 87.776-73.12-87.776a8 8 0 0 0-6.144-2.88h-54.72a8 8 0 0 0-6.144 13.12L744.256 384l-102.368 122.88a8 8 0 0 0 6.144 13.12h54.72a8 8 0 0 0 6.144-2.88l73.12-87.776z"  horiz-adv-x="1024" />

    
    <glyph glyph-name="delete1" unicode="&#60643;" d="M396 472H448a8 8 0 0 0 8-8V160a8 8 0 0 0-8-8h-52a8 8 0 0 0-8 8v304a8 8 0 0 0 8 8z m180 0h52a8 8 0 0 0 8-8V160a8 8 0 0 0-8-8H576a8 8 0 0 0-8 8v304a8 8 0 0 0 8 8zM736 640h128a32 32 0 0 0 32-32v-36a8 8 0 0 0-8-8h-59.68l-25.056-519.072a64 64 0 0 0-63.936-60.928H284.64a64.032 64.032 0 0 0-63.936 60.928l-25.056 519.072H135.968a8 8 0 0 0-8 8V608a32 32 0 0 0 32 32h128V720a64 64 0 0 0 64 64h320a64 64 0 0 0 64-64V640z m-76 0V708h-296V640h296zM736 564H270.784l18.56-504h445.312l18.56 504H736z"  horiz-adv-x="1024" />

    
    <glyph glyph-name="decreasedecimalplace" unicode="&#60644;" d="M651.264 136.128h220.288v-99.584h-220.288v-100.96a9.92 9.92 0 0 0-5.472-8.896l-0.064-0.032a9.6 9.6 0 0 0-10.624 1.44l-177.664 145.792a10.016 10.016 0 0 0-0.032 15.488h0.032l177.664 146.304a9.6 9.6 0 0 0 10.496 1.504l-0.064 0.032c3.456-1.6 5.696-5.12 5.76-8.96v-92.16zM83.584 384h58.752a19.84 19.84 0 0 0 19.52-19.84v-59.968a19.808 19.808 0 0 0-19.52-19.776H83.584A19.776 19.776 0 0 0 64 304.192v59.904 0.064a19.84 19.84 0 0 0 19.584 19.84zM382.08 732.416c-40.64 0-73.408-33.28-73.408-74.624v-199.104C308.736 417.408 341.568 384 382.08 384s73.408 33.408 73.408 74.688v199.04c0 41.344-32.832 74.688-73.408 74.688z m0 84.672c86.464 0 156.608-71.36 156.608-159.36v-199.04c0-88-70.144-159.36-156.608-159.36-86.528 0-156.608 71.36-156.608 159.36v199.04c0 88 70.08 159.36 156.608 159.36z"  horiz-adv-x="1024" />

    
    <glyph glyph-name="formatpainter" unicode="&#60645;" d="M768 688h104c22.08 0 40-17.92 40-40v-208c0-22.08-17.92-40-40-40H520.992v-88h44a8 8 0 0 0 8-8v-236a84 84 0 1 0-168 0V304a8 8 0 0 0 8 8h44v112c0 22.08 17.92 40 40 40H848v160H768v-72a24 24 0 0 0-24-24H184a24 24 0 0 0-24 24v208a24 24 0 0 0 24 24h560a24 24 0 0 0 24-24V688z"  horiz-adv-x="1024" />

    
    <glyph glyph-name="dingduiqi" unicode="&#60646;" d="M64 832v-64h896V832z m256-832a64 64 0 0 1 64-64h256a64 64 0 0 1 64 64V640a64 64 0 0 1-64 64h-256a64 64 0 0 1-64-64v-640z m64 0V640h256v-640h-256z"  horiz-adv-x="1024" />

    
    <glyph glyph-name="edit-pen" unicode="&#60647;" d="M185.6 80.736c2.56 0 5.12 0.256 7.68 0.608l214.176 37.536a12.256 12.256 0 0 1 6.816 3.648L954.272 662.528a12.736 12.736 0 0 1 0 17.92L742.56 892.32A12.576 12.576 0 0 1 733.664 896h-0.32a12.512 12.512 0 0 1-8.896-3.68L184.448 352.32a13.12 13.12 0 0 1-3.584-6.752v-0.096l-37.536-214.176a43.136 43.136 0 0 1 42.304-50.592z m85.856 222.112l462.08 461.92 93.344-93.344L364.8 209.504l-113.248-19.968 19.872 113.312z m706.88-329.12H40.672c-22.496 0-40.704-18.24-40.704-40.704V-112.896c0-5.632 4.608-10.24 10.24-10.24h998.656a10.24 10.24 0 0 1 10.24 10.24v45.824 0.096c0 22.496-18.24 40.704-40.704 40.704h-0.096z"  horiz-adv-x="1024" />

    
    <glyph glyph-name="error" unicode="&#60648;" d="M464 176a48 48 0 0 1 96 0 48 48 0 0 1-96 0zM480 480v-184c0-4.384 3.616-8 8-8h48c4.384 0 8 3.616 8 8V480a8.032 8.032 0 0 1-8 8h-48A8.032 8.032 0 0 1 480 480z m475.712-440l-416 720c-6.208 10.688-16.896 16-27.712 16s-21.6-5.312-27.712-16l-416-720A32 32 0 0 1 96-8h832a32 32 0 0 1 27.712 48z m-783.52 27.904L512 656.096l339.808-588.192H172.192z"  horiz-adv-x="1024" />

    
    <glyph glyph-name="gongshi" unicode="&#60649;" d="M832 588.8a38.4 38.4 0 0 1 38.4 38.4V704A38.4 38.4 0 0 1 832 742.4H192.32a38.4 38.4 0 0 1-37.44-29.888l-0.064-0.256a38.368 38.368 0 0 1 12.416-38.912l0.064-0.032 285.056-239.296-284.16-338.88a31.2 31.2 0 0 1-2.624-3.648l-0.064-0.128a38.368 38.368 0 0 1 26.816-65.728H832a38.4 38.4 0 0 1 38.4 38.4v76.8a38.4 38.4 0 1 1-76.8 0v-38.4H274.56l261.44 311.68a38.4 38.4 0 0 1-4.704 54.048l-0.064 0.032-1.28 1.024-0.192 0.192-233.856 196.224h497.664v-38.4a38.4 38.4 0 0 1 38.4-38.4z"  horiz-adv-x="1024" />

    
    <glyph glyph-name="exit-full-screen" unicode="&#60650;" d="M276.8 565.568l-43.904-43.904a8 8 0 0 1 4.736-13.568l160.192-18.944a8.128 8.128 0 0 1 8.96 8.96L387.84 658.24a8 8 0 0 1-13.632 4.672L330.496 619.2 196.8 752.832a8.032 8.032 0 0 1-11.264 0L143.104 710.528a8 8 0 0 1 0-11.328l133.76-133.696z m561.408 187.328a8.032 8.032 0 0 1-11.264 0l-133.76-133.632-43.648 43.712a8 8 0 0 1-13.632-4.64v-0.032l-18.88-160.128c-0.64-5.12 3.712-9.472 8.896-8.96l160.192 18.944a8 8 0 0 1 4.736 13.632l-43.904 43.904L880.64 699.2a8.032 8.032 0 0 1 0 11.264l-42.432 42.432z m-202.24-643.008a8 8 0 0 1 13.568-4.736l43.648 43.712 133.76-133.568a8.032 8.032 0 0 1 11.264 0l42.432 42.24a8 8 0 0 1 0 11.328l-133.76 133.76 43.904 43.84a8 8 0 0 1-4.64 13.632h-0.032l-160.192 18.88a8 8 0 0 1-8.96-8.928v0.032l18.944-160.192zM185.472 15.36a8.032 8.032 0 0 1 11.264 0l133.76 133.632 43.648-43.712c4.736-4.672 12.8-1.92 13.632 4.736l18.88 160.064a8 8 0 0 1-8.928 8.96h0.032l-160.192-18.944a8 8 0 0 1-4.736-13.632l43.904-43.776-133.696-133.632a8.032 8.032 0 0 1 0-11.264l42.432-42.432z"  horiz-adv-x="1024" />

    
    </font>
</defs>
</svg>
